<svg width="19" height="17" viewBox="0 0 19 17" fill="none" xmlns="http://www.w3.org/2000/svg">
<path d="M7.77589 7.84325e-05C7.23317 7.84325e-05 6.75574 0.287108 6.44831 0.686755C6.19752 1.01261 6.04512 1.4184 5.99572 1.8594H0.00220693V1.86152H0V2.40246V6.55625H0.00220693V17H18.9957V6.54142L19 6.53931V1.86152H18.9957V1.85932H13.0022C12.9532 1.41907 12.802 1.01488 12.5517 0.688794C12.245 0.288916 11.767 0 11.2242 0L7.77589 7.84325e-05ZM7.77589 1.08182H11.2242C11.3809 1.08182 11.528 1.15456 11.6703 1.33963C11.7603 1.45708 11.7861 1.66962 11.8298 1.8594H7.17029C7.21409 1.66998 7.23952 1.4571 7.32977 1.33963C7.47247 1.15407 7.61911 1.08182 7.77589 1.08182ZM1.1035 2.94537H17.8966V5.79984L11.4828 8.24435C11.1882 7.65994 10.5784 7.2492 9.87287 7.2492H9.07546C8.3888 7.2492 7.79462 7.63856 7.49141 8.19784L1.1035 5.81247V2.94537ZM17.8966 6.95978V15.9224H1.10134V6.96817L7.27589 9.2733V9.84586C7.27589 10.815 8.08692 11.6185 9.07546 11.6185H9.87287C10.8614 11.6185 11.6746 10.815 11.6746 9.84586V9.33456L17.8966 6.95978ZM9.07546 8.33306H9.87502C10.2743 8.33306 10.5468 8.59889 10.5625 8.98805L10.5733 9.25848V9.84586C10.5733 10.2486 10.2834 10.5325 9.87292 10.5325H9.07547C8.66499 10.5325 8.37504 10.2485 8.37504 9.84586V9.19299L8.39658 8.95652C8.43024 8.58486 8.69081 8.33306 9.07546 8.33306Z" fill="#00BB56"/>
</svg>
