<svg width="20" height="21" viewBox="0 0 20 21" fill="none" xmlns="http://www.w3.org/2000/svg">
<path d="M6.46875 12.5L3.1625 2.07812C3.01875 1.43125 2.37188 1 1.725 1H0" stroke="#E37B00" stroke-miterlimit="10" stroke-linejoin="round"/>
<path d="M17.2501 15.375H4.6001C3.80947 15.375 3.1626 14.7281 3.1626 13.9375C3.1626 13.1469 3.80947 12.6438 4.6001 12.5L19.4063 10.3438V3.15625H6.46885" stroke="#E37B00" stroke-miterlimit="10" stroke-linejoin="round"/>
<path d="M6.46875 19.6875C6.8657 19.6875 7.1875 19.3657 7.1875 18.9688C7.1875 18.5718 6.8657 18.25 6.46875 18.25C6.0718 18.25 5.75 18.5718 5.75 18.9688C5.75 19.3657 6.0718 19.6875 6.46875 19.6875Z" stroke="#E37B00" stroke-miterlimit="10" stroke-linejoin="round"/>
<path d="M15.8125 19.6875C16.2095 19.6875 16.5312 19.3657 16.5312 18.9688C16.5312 18.5718 16.2095 18.25 15.8125 18.25C15.4155 18.25 15.0938 18.5718 15.0938 18.9688C15.0938 19.3657 15.4155 19.6875 15.8125 19.6875Z" stroke="#E37B00" stroke-miterlimit="10" stroke-linejoin="round"/>
</svg>
