<svg width="15" height="23" viewBox="0 0 15 23" fill="none" xmlns="http://www.w3.org/2000/svg">
<path d="M7.50939 0L0 8.66336H3.64205V18.8262C3.64205 19.1517 3.78051 19.464 4.02696 19.6942C4.27341 19.9244 4.60767 20.0538 4.9562 20.0538C5.12509 20.0503 5.2916 20.0159 5.44623 19.9523C5.60085 19.8888 5.74056 19.7974 5.85737 19.6834C5.97417 19.5694 6.06579 19.435 6.12699 19.2879C6.18819 19.1408 6.21776 18.9839 6.21402 18.8262V17.0724C6.21402 16.7469 6.35247 16.4346 6.59892 16.2044C6.84537 15.9742 7.17963 15.8448 7.52816 15.8448C7.69705 15.8483 7.86356 15.8827 8.01819 15.9463C8.17282 16.0098 8.31253 16.1012 8.42933 16.2152C8.54614 16.3292 8.63776 16.4636 8.69895 16.6107C8.76015 16.7578 8.78972 16.9147 8.78598 17.0724V21.7724C8.78598 22.098 8.92444 22.4102 9.17089 22.6404C9.41734 22.8707 9.7516 23 10.1001 23C10.4404 22.9908 10.7631 22.8569 10.9985 22.6271C11.2339 22.3974 11.363 22.0904 11.358 21.7724V8.66336H15L7.50939 0Z" fill="#00BB56"/>
</svg>
