<svg width="15" height="23" viewBox="0 0 15 23" fill="none" xmlns="http://www.w3.org/2000/svg">
<path d="M7.49061 23L15 14.3366L11.3579 14.3366L11.3579 4.17385C11.3579 3.84827 11.2195 3.53602 10.973 3.3058C10.7266 3.07558 10.3923 2.94624 10.0438 2.94624C9.87491 2.94966 9.7084 2.98413 9.55377 3.04768C9.39915 3.11123 9.25944 3.20261 9.14263 3.31661C9.02583 3.43061 8.9342 3.565 8.87301 3.71208C8.81181 3.85917 8.78224 4.01608 8.78598 4.17385V5.92756C8.78598 6.25315 8.64753 6.56539 8.40108 6.79561C8.15463 7.02583 7.82037 7.15517 7.47184 7.15517C7.30295 7.15175 7.13644 7.11728 6.98181 7.05373C6.82718 6.99018 6.68747 6.8988 6.57067 6.7848C6.45386 6.6708 6.36224 6.53641 6.30105 6.38932C6.23985 6.24224 6.21028 6.08533 6.21402 5.92756L6.21402 1.2276C6.21402 0.902022 6.07556 0.589774 5.82911 0.359555C5.58266 0.129334 5.2484 8.34465e-07 4.89987 8.34465e-07C4.5596 0.00918281 4.23686 0.143121 4.00148 0.372851C3.76609 0.60258 3.63697 0.909636 3.64205 1.2276L3.64205 14.3366L-1.19209e-07 14.3366L7.49061 23Z" fill="#F64F7D"/>
</svg>
