<svg width="266" height="34" viewBox="0 0 266 34" fill="none" xmlns="http://www.w3.org/2000/svg">
<path fill-rule="evenodd" clip-rule="evenodd" d="M191.865 0.130404C189.153 0.224187 186.781 0.334561 186.594 0.375922C186.407 0.417042 187.554 0.51876 189.144 0.601721C192.027 0.752254 192.022 0.752735 187.614 0.826799C185.182 0.867679 181.586 0.986228 179.622 1.09011C177.152 1.22092 178.409 1.24473 183.703 1.1673C195.802 0.990558 208.226 0.834254 209.824 0.838342C210.715 0.840746 211.207 0.747925 211.079 0.601721C210.941 0.443734 213.916 0.361253 219.751 0.361253C226.055 0.361253 228.566 0.437 228.404 0.622401C228.26 0.786881 228.473 0.862869 228.979 0.82728C229.421 0.796019 230.012 0.834735 230.293 0.913368C230.573 0.99176 233.098 1.17163 235.904 1.31302C238.709 1.45442 241.579 1.66555 242.28 1.78218C242.982 1.89856 243.555 1.90434 243.555 1.79492C243.555 1.52175 242.655 1.3628 237.434 0.713779C236.78 0.632501 235.555 0.454074 234.714 0.317488C232.9 0.0231556 199.229 -0.12377 191.865 0.130404ZM88.3136 0.383616C86.7153 0.517557 86.7612 0.528378 89.0788 0.563967C91.5198 0.60124 92.2574 0.499522 90.7791 0.329271C90.3581 0.280697 89.2488 0.305224 88.3136 0.383616ZM84.5728 0.501927C84.1988 0.543047 82.5538 0.646207 80.9171 0.731092C79.2807 0.815977 77.9415 0.965068 77.9415 1.0627C77.9415 1.16009 78.4387 1.19688 79.0467 1.14422C79.8942 1.07087 80.0329 1.10767 79.6418 1.30244C79.2541 1.4953 79.499 1.55037 80.662 1.53137C82.0577 1.50877 82.1026 1.49049 81.1721 1.32312L80.1519 1.13965L81.399 1.11103C82.0845 1.0954 82.6967 1.17908 82.7592 1.29715C82.8235 1.41907 84.1188 1.43398 85.7631 1.33154C88.8808 1.13772 88.8268 1.04514 85.593 1.04009C84.4708 1.03817 83.9352 0.983824 84.4028 0.919138C85.206 0.808042 86.2936 0.321336 85.576 0.393957C85.3985 0.411992 84.9469 0.460566 84.5728 0.501927ZM201.826 0.538958C200.665 0.58585 198.675 0.586091 197.405 0.53968C196.135 0.493511 197.085 0.455036 199.516 0.454795C201.948 0.454314 202.987 0.492308 201.826 0.538958ZM206.573 0.520443C206.339 0.587293 205.957 0.587293 205.723 0.520443C205.489 0.453833 205.68 0.399247 206.148 0.399247C206.615 0.399247 206.807 0.453833 206.573 0.520443ZM232.418 0.76091C232.184 0.82776 231.802 0.82776 231.568 0.76091C231.334 0.694301 231.525 0.639715 231.993 0.639715C232.461 0.639715 232.652 0.694301 232.418 0.76091ZM234.805 0.759467C234.575 0.825356 234.116 0.829444 233.785 0.768365C233.454 0.707286 233.642 0.653421 234.203 0.648612C234.765 0.643803 235.035 0.693579 234.805 0.759467ZM89.2488 1.00787C89.5759 1.06847 90.1119 1.06847 90.439 1.00787C90.7662 0.947513 90.4985 0.897977 89.8439 0.897977C89.1893 0.897977 88.9216 0.947513 89.2488 1.00787ZM92.4795 1.00138C92.7134 1.06823 93.096 1.06823 93.3296 1.00138C93.5636 0.934768 93.3721 0.880183 92.9045 0.880183C92.437 0.880183 92.2458 0.934768 92.4795 1.00138ZM27.3752 1.39863C27.2772 1.51069 25.4922 1.58018 23.4082 1.55301C19.627 1.5042 13.0041 1.85816 11.8894 2.16885C11.5163 2.27273 11.3269 2.55456 11.3718 2.93859C11.4483 3.59218 11.501 3.6155 13.4133 3.8401C14.9783 4.02406 15.1044 4.41314 13.5833 4.36432C12.5706 4.33186 12.4862 4.38428 12.576 4.99026C12.6617 5.5693 12.5559 5.65203 11.7258 5.65515C10.5366 5.65996 10.1176 5.87374 10.0238 6.52396C9.9629 6.94694 10.1836 7.06189 11.299 7.18789C13.1045 7.39205 13.0069 7.72462 11.0967 7.87683C9.58781 7.99707 7.71164 8.86323 8.07075 9.27395C8.15985 9.37615 7.77353 9.53125 7.21208 9.61854C6.3296 9.75561 6.25682 9.82342 6.67477 10.119C6.9407 10.307 7.36069 10.4626 7.60792 10.4645C7.94663 10.4674 7.93473 10.5229 7.55963 10.6908C7.21106 10.8466 7.6086 10.9353 8.88896 10.9875C10.6937 11.0611 10.7158 11.0712 10.7464 11.8436C10.7638 12.2735 10.6628 12.6251 10.5227 12.6251C10.3826 12.6251 10.2676 12.8415 10.2676 13.106C10.2676 13.4624 10.0255 13.5954 9.33241 13.6197C8.51727 13.6483 8.49652 13.6659 9.17122 13.7575C10.1571 13.8912 11.9503 14.5455 11.3364 14.5474C11.077 14.5481 10.9566 14.6989 11.0613 14.892C11.3381 15.402 10.6648 15.6771 8.42681 15.9686C6.42448 16.2292 5.56172 16.4726 6.64008 16.4726C6.95192 16.4726 7.20698 16.6349 7.20698 16.8333C7.20698 17.1139 6.75367 17.194 5.16656 17.194C2.96631 17.194 2.28209 17.6533 4.4014 17.7076C5.19071 17.7278 5.38523 17.78 4.91151 17.8447C4.4905 17.9019 4.14635 18.0421 4.14635 18.1564C4.14635 18.2706 3.83791 18.4331 3.46111 18.5178C3.08431 18.6022 2.86055 18.7679 2.96325 18.8854C3.06629 19.0033 2.64766 19.2021 2.03316 19.3274C1.0677 19.5244 1.26256 19.5592 3.46621 19.5842C6.08509 19.6141 6.18235 19.8673 3.69644 20.1833C2.59427 20.3232 2.45995 20.403 2.816 20.7063C3.15403 20.9944 3.29312 21.0032 3.52777 20.7522C3.75425 20.5096 3.93279 20.5456 4.32999 20.914C4.79826 21.3481 4.77616 21.4075 4.06847 21.6239C3.40738 21.8259 3.56585 21.8788 5.16656 21.9918C6.84515 22.1101 6.96281 22.1536 6.3143 22.4165C5.91709 22.5776 4.92239 22.7815 4.10384 22.8695C1.55978 23.1432 1.41321 23.4298 3.80628 23.4517L6.01674 23.4717L3.12614 24.2404L0.235551 25.0092L1.9359 25.1294L3.63625 25.2497L1.63256 25.575C0.232491 25.8025 -0.228304 25.9643 0.102244 26.1125C0.362737 26.2291 0.881683 26.3337 1.25576 26.345C1.93114 26.3654 1.93114 26.3669 1.26188 26.5518C0.772863 26.6867 1.19319 26.7949 2.7922 26.9457C4.78943 27.1337 4.86866 27.1614 3.63625 27.2395C2.88809 27.2869 2.13076 27.4269 1.9529 27.5502C1.7526 27.6892 3.17409 27.7818 5.69367 27.7936C8.83217 27.8082 9.54462 27.8676 8.82231 28.054C8.28024 28.1942 7.88712 28.4755 7.88712 28.7237C7.88712 29.0709 7.29268 29.2373 4.7459 29.6029C3.01834 29.8508 1.89305 30.0929 2.24502 30.1408C2.75717 30.2105 2.79016 30.2704 2.4103 30.4404C2.06139 30.5967 2.16069 30.6547 2.78607 30.6602C3.25367 30.6643 3.86137 30.7684 4.13683 30.8915C4.69318 31.1402 4.54866 31.201 2.73846 31.4797C2.24468 31.5557 1.7577 31.7712 1.65602 31.9587C1.50095 32.2439 2.08859 32.2814 5.27436 32.1886C8.08504 32.1068 8.9444 32.1468 8.56726 32.3415C8.13707 32.564 8.16393 32.5993 8.73729 32.5671C9.87381 32.5027 10.1227 32.5796 9.58747 32.8297C9.2406 32.9918 9.72996 33.0129 11.1178 32.8961C13.6581 32.6818 13.5282 32.6794 19.2795 33.0507C22.8039 33.2782 27.9706 33.3152 39.1735 33.1938C48.4727 33.0928 57.1908 33.1274 61.7882 33.2832C76.94 33.7976 78.4472 33.8336 78.2305 33.6754C78.1091 33.5867 76.4258 33.4554 74.4898 33.3837C72.5541 33.3123 70.8245 33.157 70.647 33.0391C70.2042 32.7451 99.3921 33.4424 109.72 33.7442C115.644 33.9173 160.485 33.5816 176.052 33.5713C179.525 33.5689 194.672 33.2649 195.368 33.1837C195.941 33.1163 196.237 33.1661 196.113 33.3089C195.999 33.4393 196.059 33.5458 196.246 33.5458C196.433 33.5458 196.68 33.4376 196.796 33.3053C197.071 32.9901 198.326 32.9937 198.326 33.3097C198.326 33.5816 206.36 33.5977 212.226 33.3378C214.912 33.2188 215.793 33.2536 215.918 33.4838C216.009 33.6502 216.305 33.7863 216.576 33.7863C216.848 33.7863 216.976 33.6781 216.86 33.5458C216.744 33.4136 216.927 33.2868 217.265 33.2642C217.603 33.2416 218.11 33.1991 218.39 33.1695C218.671 33.1401 219.742 33.1029 220.771 33.0868C221.91 33.069 222.467 32.9793 222.195 32.8576C221.754 32.6597 224.166 32.4755 230.973 32.1879C234.395 32.0434 235.943 31.6485 233.336 31.5855C232.504 31.5653 231.67 31.5237 231.483 31.4929C231.296 31.4622 229.689 31.4097 227.912 31.3765L224.682 31.3157L226.892 31.1286C228.108 31.0257 230.607 30.9076 232.446 30.8665C234.284 30.8252 235.862 30.7078 235.951 30.6056C236.041 30.5034 236.42 30.4197 236.794 30.4197C237.168 30.4197 237.392 30.3257 237.292 30.2105C237.19 30.0944 236.463 30.0898 235.656 30.2002C234.028 30.4229 232.476 30.4789 232.72 30.3062C233.048 30.0744 240.094 29.2159 240.581 29.3482C240.866 29.4254 241.176 29.3218 241.291 29.1109C241.435 28.8451 242.015 28.7252 243.29 28.6973L245.086 28.6581L243.215 28.5162C241.744 28.4044 241.54 28.3435 242.26 28.2307C242.764 28.1516 243.912 28.1675 244.811 28.2656C245.71 28.3637 246.481 28.4222 246.523 28.3955C246.566 28.3685 246.357 28.1007 246.059 27.7998C245.7 27.4377 245.403 27.3338 245.179 27.492C244.955 27.6505 244.481 27.6464 243.773 27.4795C241.873 27.032 242.173 26.9313 245.145 27.019C247.219 27.0801 247.994 27.0279 247.829 26.8387C247.686 26.6747 247.898 26.5638 248.381 26.5506C249.081 26.5314 245.739 26.0511 243.045 25.7837C242.484 25.728 243.173 25.6645 244.576 25.6428C245.978 25.621 247.356 25.4981 247.636 25.3699C248.059 25.1766 248.03 25.1354 247.466 25.1294C247.092 25.1253 246.557 25.0078 246.276 24.868C245.903 24.6824 246.2 24.655 247.38 24.7663C249.491 24.965 249.937 24.755 248.963 24.0221C248.532 23.6975 248.381 23.4462 248.617 23.4462C248.848 23.4462 248.942 23.338 248.826 23.2057C248.711 23.0734 247.975 22.9635 247.191 22.9616C246.407 22.9595 245.536 22.845 245.256 22.707C244.889 22.5266 245.246 22.5002 246.531 22.6132C248.348 22.7726 249.035 22.4523 247.551 22.1375C246.805 21.9793 246.803 21.9697 247.466 21.7444C248.005 21.5616 247.897 21.5344 246.947 21.6143C245.578 21.7295 244.14 21.211 245.103 20.9496C245.405 20.8679 245.926 20.801 246.262 20.801C246.598 20.801 247.063 20.6387 247.296 20.4403C247.629 20.157 247.63 20.0796 247.301 20.0796C247.069 20.0796 246.97 19.919 247.079 19.7189C247.205 19.4871 247.066 19.3522 246.691 19.3414C246.206 19.3272 246.222 19.2909 246.786 19.1274C247.418 18.9441 247.399 18.9114 246.509 18.6633C245.982 18.5166 245.332 18.3963 245.064 18.3963C244.795 18.3963 244.576 18.2881 244.576 18.1559C244.576 18.0236 245.455 17.9048 246.531 17.8921L248.486 17.8688L247.211 17.4987C245.828 17.0976 245.578 16.6251 246.552 16.2564C246.891 16.1282 248.88 15.9467 250.973 15.8529C253.065 15.7594 254.778 15.599 254.778 15.4965C254.778 15.3941 254.357 15.2017 253.842 15.0687C253.06 14.8668 253.309 14.8242 255.373 14.8083C256.772 14.7975 257.838 14.6852 257.838 14.5489C257.838 14.4166 257.523 14.3084 257.138 14.3084C256.753 14.3084 256.528 14.205 256.639 14.0785C256.749 13.952 257.065 13.9094 257.339 13.984C257.614 14.0583 257.838 14.0177 257.838 13.8936C257.838 13.7693 257.111 13.5471 256.223 13.3997C254.852 13.1722 255.378 13.1433 259.709 13.2082L264.81 13.285L260.389 12.8454C252.653 12.0761 252.791 12.0961 253.757 11.8914C254.544 11.7248 254.552 11.7094 253.863 11.6873C252.826 11.6539 252.562 11.2391 253.497 11.1121C253.926 11.0537 253.639 10.9928 252.851 10.9745C252.071 10.9565 251.383 10.8351 251.32 10.7047C251.258 10.5744 249.447 10.3791 247.296 10.2712C243.466 10.0788 243.415 10.0687 244.82 9.77941C245.736 9.59113 248.122 9.5036 251.409 9.5375C256.166 9.5868 256.599 9.55482 257.044 9.12414C257.468 8.71366 258.038 8.64777 261.763 8.57756C265.141 8.51407 266 8.42871 266 8.15674C266 7.96917 265.867 7.81575 265.704 7.81575C265.226 7.81575 259.423 7.09123 258.774 6.95055C257.545 6.68411 258.247 6.37199 260.134 6.34529C262.068 6.31788 262.075 6.31548 260.729 6.11877C259.981 6.00936 258.144 5.90548 256.648 5.88816C253.983 5.8569 250.369 5.53011 251.377 5.41108C252.337 5.29782 248.83 4.96573 246.485 4.94794C244.442 4.9323 244.043 4.85367 243.355 4.32897L242.567 3.7278L243.997 3.70616L245.426 3.68452L244.263 3.44814C243.623 3.31829 242.82 3.26394 242.478 3.32718C242.135 3.39043 241.855 3.35219 241.855 3.24206C241.855 3.13192 241.587 2.99221 241.26 2.93161C240.933 2.87126 241.353 2.79551 242.195 2.76377L243.725 2.70581L242.195 2.52354C237.193 1.92814 201.623 1.59942 190.164 2.04284C186.891 2.16957 182.657 2.27586 180.756 2.27898C178.315 2.28331 177.248 2.37349 177.126 2.58558C176.996 2.81186 176.883 2.81691 176.67 2.6053C176.43 2.3682 169.368 2.09527 168.74 2.2987C168.126 2.49757 78.5437 2.47136 72.5004 2.27057C68.479 2.13687 63.8881 1.98537 62.2983 1.93391C60.7084 1.88245 55.9764 1.78386 51.783 1.71533C47.5892 1.64655 42.6157 1.52247 40.7307 1.43975C35.2801 1.20025 27.5693 1.17644 27.3752 1.39863ZM199.963 1.2469C200.208 1.31639 200.502 1.30773 200.614 1.2279C200.727 1.14806 200.527 1.09131 200.168 1.10165C199.772 1.1132 199.691 1.17019 199.963 1.2469ZM190.781 1.48736C191.026 1.55686 191.32 1.5482 191.433 1.46837C191.545 1.38853 191.345 1.33178 190.986 1.34212C190.59 1.35366 190.51 1.41065 190.781 1.48736ZM193.502 1.48736C193.747 1.55686 194.04 1.5482 194.153 1.46837C194.266 1.38853 194.065 1.33178 193.707 1.34212C193.311 1.35366 193.23 1.41065 193.502 1.48736ZM84.3178 1.97383C84.7388 2.03106 85.4271 2.03106 85.8481 1.97383C86.2691 1.91636 85.9246 1.86947 85.0829 1.86947C84.2413 1.86947 83.8968 1.91636 84.3178 1.97383ZM153.188 2.92368C152.958 2.98957 152.499 2.99365 152.168 2.93258C151.837 2.8715 152.026 2.81763 152.587 2.81282C153.148 2.80801 153.419 2.85779 153.188 2.92368ZM240.403 2.91117C240.29 2.99101 239.996 2.99967 239.751 2.93017C239.48 2.85346 239.56 2.79647 239.956 2.78493C240.315 2.77459 240.516 2.83134 240.403 2.91117ZM189.727 3.33824C189.843 3.42024 188.726 3.4996 187.246 3.51475C185.765 3.52966 180.651 3.59699 175.882 3.66408C171.112 3.73141 154.23 3.86968 138.365 3.97188C122.501 4.07408 108.686 4.2311 107.667 4.32128C105.793 4.48672 103.55 4.29579 103.961 4.00554C104.198 3.83842 107.417 3.79369 125.466 3.70784C132.355 3.6749 136.774 3.56428 136.774 3.42457C136.774 3.29857 136.989 3.25384 137.252 3.32526C137.979 3.52244 149.304 3.48902 157.518 3.26538C165.548 3.04656 189.391 3.10066 189.727 3.33824ZM198.609 3.12687C198.365 3.29977 192.536 3.32069 192.294 3.14948C192.182 3.07084 193.596 3.0064 195.436 3.0064C197.275 3.0064 198.703 3.0605 198.609 3.12687ZM199.934 3.15164C199.821 3.23148 199.528 3.24013 199.283 3.17064C199.011 3.09393 199.092 3.03694 199.488 3.0254C199.847 3.01506 200.047 3.07181 199.934 3.15164ZM174.1 3.41688C174.523 3.47435 175.135 3.47218 175.461 3.41207C175.786 3.35195 175.439 3.30482 174.691 3.30746C173.943 3.31011 173.677 3.35941 174.1 3.41688ZM220.548 3.42722C220.634 3.52629 218.59 3.60757 216.005 3.60757C213.421 3.60757 211.191 3.52629 211.051 3.42722C210.91 3.32814 212.954 3.24687 215.593 3.24687C218.232 3.24687 220.461 3.32814 220.548 3.42722ZM222.301 3.48733C221.372 3.76964 221.111 3.76964 221.111 3.48733C221.111 3.35508 221.531 3.25456 222.046 3.2637C222.875 3.27885 222.904 3.3041 222.301 3.48733ZM160.175 3.65157C160.42 3.72107 160.713 3.71241 160.826 3.63258C160.939 3.55274 160.739 3.49599 160.38 3.50633C159.984 3.51787 159.903 3.57486 160.175 3.65157ZM162.2 3.66167C162.811 3.71506 163.729 3.71409 164.24 3.65927C164.751 3.6042 164.251 3.56044 163.129 3.56188C162.007 3.56308 161.589 3.60805 162.2 3.66167ZM93.5524 4.22292C93.3075 4.32993 92.9685 4.35686 92.7995 4.28304C92.6304 4.20922 92.6923 4.06109 92.9369 3.95408C93.1817 3.84707 93.5207 3.82014 93.6898 3.89397C93.8588 3.96779 93.7969 4.11592 93.5524 4.22292ZM99.7059 4.02045C99.7059 4.12409 98.5966 4.19599 97.2404 4.18036C95.4105 4.1592 95.0378 4.10558 95.7951 3.97236C97.1007 3.74247 99.7059 3.77469 99.7059 4.02045ZM103.107 3.85405C103.107 4.11087 101.271 4.46315 100.753 4.30565C100.329 4.17676 100.395 4.10389 101.066 3.95913C102.105 3.73502 103.107 3.68356 103.107 3.85405ZM92.0425 4.22244C91.9333 4.34701 90.6672 4.44752 89.2287 4.4456C87.7902 4.44343 86.7921 4.3624 87.0108 4.26525C87.6161 3.99616 92.2747 3.95649 92.0425 4.22244ZM200.798 4.12602C200.568 4.1919 200.109 4.19599 199.778 4.13491C199.447 4.07383 199.635 4.01997 200.197 4.01516C200.758 4.01035 201.028 4.06013 200.798 4.12602ZM224.597 4.37851C224.176 4.43574 223.487 4.43574 223.066 4.37851C222.646 4.32104 222.99 4.27415 223.831 4.27415C224.673 4.27415 225.017 4.32104 224.597 4.37851ZM13.6683 7.57529C13.6683 7.70754 13.601 7.81575 13.5183 7.81575C13.4357 7.81575 13.2738 7.70754 13.1582 7.57529C13.0426 7.44303 13.1102 7.33482 13.3082 7.33482C13.5061 7.33482 13.6683 7.44303 13.6683 7.57529ZM4.42283 16.3964C4.66802 16.4659 4.9615 16.4572 5.0744 16.3774C5.18731 16.2975 4.98667 16.2408 4.62823 16.2511C4.23205 16.2627 4.15145 16.3197 4.42283 16.3964ZM246.184 20.4653C246.071 20.5452 245.777 20.5538 245.532 20.4843C245.261 20.4076 245.341 20.3506 245.738 20.3391C246.096 20.3287 246.297 20.3855 246.184 20.4653ZM7.20698 21.0415C7.20698 21.1737 7.04476 21.282 6.84684 21.282C6.64892 21.282 6.58125 21.1737 6.69687 21.0415C6.8125 20.9092 6.97437 20.801 7.05701 20.801C7.13965 20.801 7.20698 20.9092 7.20698 21.0415ZM108.392 24.6646C108.758 25.0833 108.341 25.172 107.874 24.7745C107.606 24.5461 107.58 24.408 107.806 24.408C108.005 24.408 108.269 24.5235 108.392 24.6646ZM129.956 25.2566C130.158 25.1684 130.235 24.9955 130.128 24.8724C130.015 24.7437 130.882 22.5 132.05 22.5C133.224 22.5 136.976 22.8957 134.121 24.9125C134.189 25.0578 138.077 23.1756 138.956 23.2455C141.144 23.4201 137.533 25.8489 135.232 25.7573C133.848 25.7022 133.373 25.7662 133.373 26.0076C133.373 26.4159 132.129 26.4359 131.898 26.0312C131.798 25.8569 131.715 25.9134 131.699 26.1656C131.685 26.4049 131.547 26.5458 131.393 26.4785C131.239 26.4114 130.858 26.5672 130.546 26.825C129.88 27.3752 128.272 27.462 128.272 26.9481C128.272 26.685 127.977 26.6364 127.036 26.7442C126.066 26.8555 125.836 26.8134 125.967 26.5489C126.059 26.3633 126.352 26.2226 126.617 26.2361C126.883 26.2495 127.309 26.1021 127.564 25.9088C127.968 25.6032 127.878 25.5786 126.875 25.722C126.241 25.8126 125.466 25.9372 125.155 25.9987C124.843 26.0605 124.499 26.0083 124.389 25.8833C124.28 25.758 123.5 24.5 125.91 25.4885C126.855 25.3964 125.652 22.1727 125.875 22C126.208 21.7427 128.545 24.7586 129.016 25.0551C129.331 25.2542 129.755 25.3449 129.956 25.2566ZM177.922 24.982C177.922 25.1795 175.842 25.2788 175.676 25.0893C175.58 24.9791 176.046 24.889 176.712 24.889C177.377 24.889 177.922 24.9308 177.922 24.982ZM115.824 26.4299C115.532 26.9683 115.104 26.6992 115.207 26.0413C115.334 25.2232 115.342 25.2165 115.7 25.6498C115.882 25.8698 115.937 26.2209 115.824 26.4299ZM139.926 25.5277C139.695 25.5935 139.236 25.5976 138.905 25.5365C138.575 25.4755 138.763 25.4216 139.324 25.4168C139.885 25.412 140.156 25.4618 139.926 25.5277ZM151.397 25.6226C149.216 25.897 141.462 25.8881 140.854 25.6104C140.516 25.4557 142.602 22.4827 146.775 22.5C151.078 22.5183 152.443 25.4909 151.397 25.6226ZM158.453 25.5421C157.938 25.5971 157.097 25.5971 156.583 25.5421C156.068 25.487 156.489 25.442 157.518 25.442C158.546 25.442 158.967 25.487 158.453 25.5421ZM161.684 25.5291C161.45 25.5959 161.067 25.5959 160.833 25.5291C160.6 25.4625 160.791 25.4079 161.259 25.4079C161.726 25.4079 161.918 25.4625 161.684 25.5291ZM165.084 25.5291C164.851 25.5959 164.468 25.5959 164.234 25.5291C164.001 25.4625 164.192 25.4079 164.659 25.4079C165.127 25.4079 165.318 25.4625 165.084 25.5291ZM107.187 25.728C107.187 26.0781 105.92 26.8115 105.327 26.8048C104.663 26.7971 104.667 26.779 105.415 26.338L106.193 25.8795L104.735 25.7869C103.455 25.7056 103.515 25.6892 105.232 25.6525C106.308 25.6294 107.187 25.6633 107.187 25.728ZM108.796 25.7556C108.683 25.8355 108.389 25.8441 108.144 25.7746C107.873 25.6979 107.953 25.6409 108.349 25.6294C108.708 25.619 108.909 25.6758 108.796 25.7556ZM129.632 25.8508C129.632 25.9831 129.794 26.0913 129.992 26.0913C130.19 26.0913 130.258 25.9831 130.142 25.8508C130.027 25.7186 129.865 25.6104 129.782 25.6104C129.699 25.6104 129.632 25.7186 129.632 25.8508ZM235.982 25.7556C235.869 25.8355 235.575 25.8441 235.33 25.7746C235.059 25.6979 235.139 25.6409 235.536 25.6294C235.894 25.619 236.095 25.6758 235.982 25.7556ZM238.539 25.7696C238.306 25.8364 237.923 25.8364 237.689 25.7696C237.456 25.703 237.647 25.6484 238.114 25.6484C238.582 25.6484 238.773 25.703 238.539 25.7696ZM92.4723 25.9961C92.3594 26.0759 92.0659 26.0846 91.8207 26.0151C91.5494 25.9384 91.63 25.8814 92.0261 25.8698C92.3846 25.8595 92.5852 25.9162 92.4723 25.9961ZM102.009 26.1365C101.934 26.2935 101.671 26.4698 101.423 26.5282C101.169 26.5881 101.069 26.5234 101.194 26.3801C101.319 26.2373 101.079 26.0798 100.646 26.0211C100.098 25.9465 100.202 25.9069 101.009 25.8835C101.749 25.8621 102.096 25.9502 102.009 26.1365ZM112.799 26.3318C112.675 26.6076 112.737 26.8127 112.946 26.8127C113.145 26.8127 113.309 26.9029 113.309 27.013C113.309 27.3254 111.926 27.1761 111.624 26.831C111.416 26.5922 111.19 26.585 110.625 26.799C110.223 26.951 109.728 27.0032 109.526 26.9147C109.118 26.7362 111.413 25.9013 112.396 25.8703C112.864 25.8556 112.962 25.9679 112.799 26.3318ZM177.072 26.0913C177.187 26.2236 177.12 26.3318 176.922 26.3318C176.724 26.3318 176.562 26.2236 176.562 26.0913C176.562 25.959 176.629 25.8508 176.712 25.8508C176.794 25.8508 176.956 25.959 177.072 26.0913ZM180.302 25.9569C180.302 26.0153 180.149 26.1298 179.962 26.2115C179.775 26.2933 179.622 26.2454 179.622 26.1055C179.622 25.9655 179.775 25.8508 179.962 25.8508C180.149 25.8508 180.302 25.8985 180.302 25.9569ZM230.044 26.0086C229.814 26.0745 229.355 26.0786 229.024 26.0175C228.693 25.9564 228.881 25.9025 229.443 25.8977C230.004 25.8929 230.274 25.9427 230.044 26.0086ZM231.901 25.9961C231.788 26.0759 231.494 26.0846 231.249 26.0151C230.978 25.9384 231.059 25.8814 231.455 25.8698C231.813 25.8595 232.014 25.9162 231.901 25.9961ZM97.4955 26.3318C97.6111 26.464 97.5434 26.5722 97.3455 26.5722C97.1476 26.5722 96.9854 26.464 96.9854 26.3318C96.9854 26.1995 97.0527 26.0913 97.1354 26.0913C97.218 26.0913 97.3799 26.1995 97.4955 26.3318ZM137.702 26.2366C137.589 26.3164 137.295 26.325 137.05 26.2555C136.779 26.1788 136.859 26.1218 137.255 26.1103C137.614 26.1 137.814 26.1567 137.702 26.2366ZM139.402 26.2366C139.289 26.3164 138.996 26.325 138.75 26.2555C138.479 26.1788 138.56 26.1218 138.956 26.1103C139.314 26.1 139.515 26.1567 139.402 26.2366ZM142.555 26.452C142.555 26.6504 142.708 26.8127 142.895 26.8127C143.082 26.8127 143.235 26.6776 143.234 26.5121C143.233 26.289 143.98 26.2317 146.129 26.2895C147.881 26.3366 148.945 26.4592 148.822 26.5999C148.71 26.7276 148.349 26.7716 148.019 26.6975C147.689 26.6235 146.975 26.7269 146.432 26.9269C145.559 27.2492 145.433 27.2496 145.335 26.9315C145.212 26.5299 143.732 26.4388 143.405 26.8127C143.177 27.0736 141.775 27.1429 141.445 26.9094C141.113 26.6754 141.568 26.0913 142.081 26.0913C142.341 26.0913 142.555 26.2536 142.555 26.452ZM173.841 26.452C173.483 26.7574 173.557 26.8127 174.33 26.8127C174.851 26.8127 175.151 26.9156 175.031 27.0532C174.916 27.1854 174.499 27.2936 174.104 27.2936C173.71 27.2936 173.497 27.3711 173.631 27.4656C173.765 27.5601 175.113 27.6041 176.626 27.5637C179.085 27.4978 179.356 27.5329 179.16 27.8929C179.017 28.1579 179.087 28.2579 179.367 28.1855C179.601 28.1247 179.754 27.9535 179.707 27.8046C179.66 27.6558 180.014 27.5341 180.493 27.5341C180.986 27.5341 181.272 27.6382 181.153 27.7746C181.037 27.9068 181.105 28.015 181.303 28.015C181.5 28.015 181.663 27.9068 181.663 27.7746C181.663 27.3744 182.935 27.5053 183.165 27.9292C183.282 28.1466 183.328 28.3606 183.265 28.4048C183.203 28.4489 181.644 28.5145 179.8 28.5506C177.354 28.5984 176.411 28.5352 176.307 28.3156C176.229 28.1504 175.862 28.015 175.493 28.015C175.124 28.015 174.916 28.1233 175.031 28.2555C175.154 28.3957 174.808 28.496 174.201 28.496C173.629 28.496 173.161 28.3878 173.161 28.2555C173.161 28.1233 172.595 28.015 171.903 28.015C170.527 28.015 170.703 27.6305 172.141 27.4944C172.78 27.4338 173.017 27.2499 173.098 26.7526C173.164 26.3472 173.411 26.0913 173.735 26.0913C174.167 26.0913 174.187 26.1577 173.841 26.452ZM207.678 26.6458C208.052 26.7148 207.631 26.7603 206.743 26.7471C205.855 26.7338 205.128 26.6276 205.128 26.5112C205.128 26.3945 205.453 26.3724 205.85 26.4616C206.403 26.5855 206.508 26.547 206.295 26.2974C206.077 26.0408 206.122 26.0297 206.508 26.2457C206.777 26.3969 207.304 26.5768 207.678 26.6458ZM165.169 26.5722C165.054 26.7045 164.815 26.8127 164.639 26.8127C164.463 26.8127 164.319 26.7045 164.319 26.5722C164.319 26.44 164.558 26.3318 164.849 26.3318C165.141 26.3318 165.285 26.44 165.169 26.5722ZM128.952 26.8127C129.611 27.114 129.972 27.114 129.972 26.8127C129.972 26.6805 129.628 26.5739 129.207 26.5758C128.588 26.579 128.539 26.6242 128.952 26.8127ZM160.918 26.9171C160.918 27.1123 161.324 27.2985 161.854 27.3463C162.604 27.4141 162.511 27.4536 161.386 27.5461C160.107 27.6512 159.983 27.6132 159.983 27.1169C159.983 26.8151 160.192 26.5722 160.451 26.5722C160.708 26.5722 160.918 26.7273 160.918 26.9171ZM171.461 26.7769C171.461 26.8976 170.845 27.0024 170.094 27.0099C169.341 27.0171 168.795 26.9442 168.879 26.8481C169.108 26.5869 171.461 26.522 171.461 26.7769ZM65.5289 27.0532C65.6446 27.1854 65.5004 27.2936 65.2089 27.2936C64.9175 27.2936 64.6788 27.1854 64.6788 27.0532C64.6788 26.9209 64.8226 26.8127 64.9988 26.8127C65.1749 26.8127 65.4133 26.9209 65.5289 27.0532ZM133.033 27.0674C133.033 27.2073 132.863 27.2477 132.655 27.1568C132.447 27.0659 132.143 27.1407 131.98 27.323C131.745 27.5851 131.682 27.5663 131.678 27.2335C131.675 26.9719 131.93 26.8127 132.353 26.8127C132.727 26.8127 133.033 26.9274 133.033 27.0674ZM137.794 26.9931C137.794 27.0921 137.426 27.1734 136.976 27.1734C136.526 27.1734 136.229 27.0921 136.316 26.9931C136.403 26.894 136.77 26.8127 137.134 26.8127C137.497 26.8127 137.794 26.894 137.794 26.9931ZM202.577 27.0532C202.461 27.1854 202.032 27.2859 201.622 27.2768C200.904 27.2605 200.901 27.2525 201.557 27.0532C202.493 26.7687 202.826 26.7687 202.577 27.0532ZM227.572 27.0532C227.572 27.1854 227.917 27.2953 228.337 27.2973C228.758 27.2994 229.332 27.4059 229.613 27.5341C229.989 27.706 229.721 27.7806 228.592 27.8179C227.751 27.8458 226.526 27.9114 225.872 27.9636C225.217 28.016 219.402 28.0906 212.949 28.1293C206.496 28.168 202.135 28.1189 203.257 28.0201C204.379 27.9215 206.063 27.7734 206.998 27.6911C210.591 27.3754 214.949 27.2932 215.162 27.5368C215.28 27.6719 215.534 27.7137 215.725 27.6298C215.918 27.5461 216.432 27.6127 216.869 27.7782C217.306 27.9436 217.942 28.0004 218.282 27.9042C218.622 27.808 220 27.7104 221.344 27.6873C222.688 27.6642 223.887 27.5745 224.01 27.4879C224.132 27.4016 224.754 27.3908 225.392 27.4639C226.315 27.5697 226.552 27.5168 226.552 27.2049C226.552 26.9892 226.781 26.8127 227.062 26.8127C227.343 26.8127 227.572 26.9209 227.572 27.0532ZM237.576 27.1133C237.734 27.3538 237.814 27.3538 237.972 27.1133C238.186 26.7901 241.025 26.6872 241.293 26.9931C241.379 27.0921 240.776 27.1354 239.952 27.089C239.017 27.0363 238.454 27.1042 238.454 27.2694C238.454 27.6705 236.855 27.5863 236.631 27.1734C236.393 26.7348 237.289 26.6778 237.576 27.1133ZM158.708 27.2936C158.592 27.4259 158.086 27.5264 157.583 27.5173C156.766 27.5021 156.74 27.4781 157.348 27.2936C158.292 27.0065 158.959 27.0065 158.708 27.2936ZM190.675 27.2936C190.559 27.4259 190.78 27.5341 191.165 27.5341C191.55 27.5341 191.865 27.4259 191.865 27.2936C191.865 27.0097 192.524 27.0739 193.084 27.4124C193.597 27.7229 191.851 28.2709 190.905 28.0961C190.54 28.0285 190.138 28.0908 190.013 28.2346C189.887 28.3784 189.555 28.496 189.274 28.496C188.994 28.496 188.866 28.3794 188.991 28.237C189.147 28.0576 188.735 28.029 187.65 28.1439C186.7 28.2447 186.084 28.218 186.084 28.0759C186.084 27.9472 186.961 27.7777 188.034 27.6996C189.106 27.6214 190.037 27.4439 190.102 27.3052C190.168 27.1667 190.371 27.0532 190.553 27.0532C190.735 27.0532 190.79 27.1614 190.675 27.2936ZM200.397 27.2749C200.134 27.393 199.468 27.4492 198.918 27.3999C198.147 27.3309 197.876 27.4189 197.742 27.783C197.645 28.0429 197.436 28.2555 197.277 28.2555C196.91 28.2555 197.305 27.4726 197.791 27.2371C197.992 27.14 198.768 27.0606 199.516 27.0606C200.444 27.0606 200.725 27.1287 200.397 27.2749ZM80.662 27.506C80.662 27.7924 79.3473 28.0211 79.13 27.7727C79.0351 27.664 79.1497 27.5204 79.3847 27.4533C80.0812 27.2547 80.662 27.2787 80.662 27.506ZM85.0829 27.5341C85.0829 27.6664 84.9391 27.7746 84.7629 27.7746C84.5868 27.7746 84.3484 27.6664 84.2328 27.5341C84.1171 27.4019 84.2613 27.2936 84.5528 27.2936C84.8442 27.2936 85.0829 27.4019 85.0829 27.5341ZM91.2042 27.5079C91.2042 27.8715 88.721 27.9489 87.8127 27.6137C87.0169 27.3201 87.1108 27.2965 89.0788 27.2951C90.2479 27.2944 91.2042 27.3901 91.2042 27.5079ZM92.2499 27.6002C92.2077 27.8878 91.7415 27.8321 91.5953 27.5221C91.5205 27.3634 91.6429 27.2768 91.8673 27.3297C92.0918 27.3826 92.2639 27.5043 92.2499 27.6002ZM95.2612 28.3577C95.2741 28.4801 95.0014 28.3719 94.6545 28.1172C94.2271 27.8034 94.1448 27.599 94.3995 27.4829C94.7399 27.3271 95.2007 27.7948 95.2612 28.3577ZM98.1477 27.4396C98.8398 27.6274 98.8452 28.015 98.1556 28.015C97.8641 28.015 97.7141 28.1168 97.823 28.2408C97.9314 28.3652 97.7118 28.4505 97.3346 28.4303C96.6293 28.3928 96.5195 27.808 97.1554 27.4776C97.572 27.2612 97.5002 27.2638 98.1477 27.4396ZM231.653 27.5341C231.653 27.6664 231.385 27.7729 231.058 27.771C230.549 27.7678 230.537 27.7332 230.973 27.5341C231.615 27.2407 231.653 27.2407 231.653 27.5341ZM101.59 27.9085C100.72 28.161 100.673 28.217 101.25 28.3204C101.789 28.4174 101.753 28.4455 101.063 28.4681C100.571 28.4842 100.045 28.3094 99.8202 28.0552C99.4635 27.6512 99.5638 27.6144 101.014 27.6154C102.582 27.6164 102.587 27.619 101.59 27.9085ZM106.264 28.1858C106.401 28.6927 106.321 28.7576 105.7 28.6398C105.302 28.5643 104.365 28.4977 103.617 28.4919C102.516 28.4835 102.371 28.4339 102.859 28.2334C103.19 28.097 103.376 27.8878 103.271 27.7683C103.167 27.6491 103.762 27.561 104.593 27.5728C105.917 27.5916 106.124 27.6673 106.264 28.1858ZM116.257 28.1504C116.61 28.4919 116.803 28.526 117.119 28.3026C117.685 27.9023 118.41 27.9431 118.41 28.3758C118.41 28.6569 117.978 28.7324 116.454 28.7175C115.379 28.7071 114.69 28.6439 114.924 28.5773C115.924 28.2918 115.212 28.015 113.479 28.015C111.456 28.015 110.912 28.4044 112.714 28.5626C113.401 28.6227 113.087 28.6739 111.883 28.698C110.797 28.7196 109.848 28.6217 109.72 28.4751C109.555 28.2868 109.388 28.2868 109.121 28.4751C108.918 28.6189 108.522 28.7365 108.242 28.7365C107.865 28.7365 107.831 28.666 108.113 28.4667C108.323 28.3183 108.41 28.0408 108.306 27.8498C108.147 27.5565 108.712 27.519 111.96 27.6067C115.184 27.6938 115.875 27.7811 116.257 28.1504ZM123.849 28.0752C123.852 28.3438 121.544 28.2935 121.304 28.0196C121.18 27.8775 121.643 27.8058 122.473 27.8393C123.229 27.8698 123.848 27.9761 123.849 28.0752ZM136.093 28.0009C136.093 28.1254 135.941 28.2938 135.754 28.3753C135.161 28.6345 125.975 28.5155 125.211 28.2387C124.823 28.098 129.035 27.8503 132.438 27.8138C134.535 27.7914 136.093 27.871 136.093 28.0009ZM151.007 28.1403C151.365 28.3938 150.722 28.4796 147.55 28.6015C144.298 28.7268 140.854 28.4205 140.854 28.0059C140.854 27.7945 150.702 27.9251 151.007 28.1403ZM163.129 28.2469C160.935 28.3854 159.286 28.2834 159.832 28.0429C160.017 27.9614 161.294 27.9451 162.669 28.0064L165.169 28.118L163.129 28.2469ZM169.08 28.015C169.08 28.1473 169.013 28.2555 168.93 28.2555C168.848 28.2555 168.686 28.1473 168.57 28.015C168.454 27.8828 168.522 27.7746 168.72 27.7746C168.918 27.7746 169.08 27.8828 169.08 28.015ZM176.732 28.015C176.616 28.1473 176.76 28.2555 177.052 28.2555C177.343 28.2555 177.582 28.1473 177.582 28.015C177.582 27.8828 177.438 27.7746 177.262 27.7746C177.086 27.7746 176.847 27.8828 176.732 28.015ZM247.233 27.9388C247.478 28.0083 247.771 27.9997 247.884 27.9198C247.997 27.84 247.796 27.7832 247.438 27.7936C247.042 27.8051 246.961 27.8621 247.233 27.9388ZM167.57 28.2329C167.465 28.3527 167.073 28.3943 166.699 28.325C165.763 28.1521 165.848 28.015 166.89 28.015C167.368 28.015 167.674 28.1132 167.57 28.2329ZM185.148 28.1742C184.915 28.2411 184.532 28.2411 184.298 28.1742C184.065 28.1076 184.256 28.053 184.723 28.053C185.191 28.053 185.382 28.1076 185.148 28.1742ZM200.792 28.1742C200.558 28.2411 200.175 28.2411 199.941 28.1742C199.708 28.1076 199.899 28.053 200.367 28.053C200.834 28.053 201.026 28.1076 200.792 28.1742ZM244.746 29.2174C244.861 29.3496 245.023 29.4579 245.106 29.4579C245.188 29.4579 245.256 29.3496 245.256 29.2174C245.256 29.0851 245.094 28.9769 244.896 28.9769C244.698 28.9769 244.63 29.0851 244.746 29.2174ZM253.694 29.1412C253.939 29.2107 254.233 29.202 254.345 29.1222C254.458 29.0423 254.258 28.9856 253.899 28.9959C253.503 29.0075 253.423 29.0644 253.694 29.1412ZM114.668 32.1631C114.669 32.2622 111.57 32.3233 107.783 32.2987C103.015 32.2677 101.786 32.2122 103.787 32.1184C107.939 31.9236 114.668 31.9513 114.668 32.1631ZM118.07 32.2514C118.07 32.3019 117.343 32.3307 116.454 32.3151C115.065 32.2906 114.982 32.2636 115.859 32.1227C116.812 31.9695 118.07 32.0429 118.07 32.2514ZM100.471 32.2622C100.237 32.329 99.8549 32.329 99.6209 32.2622C99.3873 32.1956 99.5784 32.141 100.046 32.141C100.514 32.141 100.705 32.1956 100.471 32.2622ZM69.6938 32.7749C69.9294 32.8845 68.5341 32.9805 66.5522 32.9908C64.591 33.0011 63.0481 32.9391 63.1236 32.8528C63.3297 32.6171 69.2048 32.5476 69.6938 32.7749ZM225.128 32.9886C225.373 33.0581 225.667 33.0495 225.78 32.9696C225.893 32.8898 225.692 32.8331 225.333 32.8434C224.937 32.8549 224.857 32.9119 225.128 32.9886ZM200.274 33.2101C200.161 33.2899 199.868 33.2986 199.623 33.2291C199.351 33.1524 199.432 33.0954 199.828 33.0839C200.187 33.0735 200.387 33.1303 200.274 33.2101ZM82.0886 33.7252C84.0889 33.7675 87.4556 33.7678 89.5702 33.7254C91.6847 33.6831 90.048 33.6485 85.9331 33.6482C81.8183 33.648 80.0883 33.6826 82.0886 33.7252ZM112.567 33.8387C112.748 33.9669 113.181 34.0294 113.528 33.9772C113.995 33.9072 113.91 33.8466 113.198 33.7442C112.577 33.6545 112.354 33.6882 112.567 33.8387ZM217.987 33.71C218.232 33.7795 218.525 33.7709 218.638 33.6911C218.751 33.6112 218.55 33.5545 218.192 33.5648C217.796 33.5763 217.715 33.6333 217.987 33.71ZM115.268 33.9563C115.691 34.0138 116.303 34.0116 116.628 33.9515C116.954 33.8914 116.607 33.8442 115.859 33.8469C115.111 33.8495 114.845 33.8988 115.268 33.9563ZM120.029 33.9563C120.452 34.0138 121.064 34.0116 121.389 33.9515C121.715 33.8914 121.368 33.8442 120.62 33.8469C119.872 33.8495 119.606 33.8988 120.029 33.9563ZM130.573 33.9606C131.184 34.014 132.103 34.013 132.614 33.9582C133.125 33.9031 132.625 33.8594 131.502 33.8608C130.38 33.862 129.962 33.907 130.573 33.9606ZM135.503 33.9589C136.02 34.014 136.785 34.0126 137.203 33.9556C137.622 33.8986 137.029 33.4983 136.093 33.5C135.158 33.5019 134.986 33.9036 135.503 33.9589ZM180.047 33.952C180.375 34.0126 180.91 34.0126 181.238 33.952C181.565 33.8916 181.297 33.8421 180.643 33.8421C179.988 33.8421 179.72 33.8916 180.047 33.952ZM185.659 33.9455C185.893 34.0123 186.275 34.0123 186.509 33.9455C186.743 33.8789 186.551 33.8243 186.084 33.8243C185.616 33.8243 185.425 33.8789 185.659 33.9455Z" fill="#F44336"/>
</svg>
