<svg xmlns="http://www.w3.org/2000/svg" viewBox="0 0 460.77 330.68"><defs><style>.cls-1{fill:#e6e6e6;}.cls-2{fill:#f65e2c;}</style></defs><title>Asset 1</title><g id="Layer_2" data-name="Layer 2"><g id="Layer_1-2" data-name="Layer 1"><path class="cls-1" d="M35.77,15.38H24.38V5a5,5,0,0,0-10,0V15.38H5a5,5,0,0,0,0,10h9.38V35.77a5,5,0,0,0,10,0V25.38H35.77a5,5,0,1,0,0-10Z"/><path class="cls-1" d="M119.77,15.77H108.38V5.38a5,5,0,1,0-10,0V15.77H89a5,5,0,0,0,0,10h9.38V36.15a5,5,0,1,0,10,0V25.77h11.39a5,5,0,0,0,0-10Z"/><path class="cls-1" d="M203.77,16.15H192.38V5.77a5,5,0,0,0-10,0V16.15H173a5,5,0,0,0,0,10h9.38V36.53a5,5,0,0,0,10,0V26.15h11.39a5,5,0,0,0,0-10Z"/><path class="cls-1" d="M287.77,16.53H276.38V6.15a5,5,0,1,0-10,0V16.53H257a5,5,0,0,0,0,10h9.38V36.91a5,5,0,0,0,10,0V26.53h11.39a5,5,0,0,0,0-10Z"/><path class="cls-1" d="M371.77,16.91H360.38V6.53a5,5,0,1,0-10,0V16.91H341a5,5,0,0,0,0,10h9.38V37.3a5,5,0,1,0,10,0V26.91h11.39a5,5,0,0,0,0-10Z"/><path class="cls-1" d="M455.77,17.3H444.38V6.91a5,5,0,0,0-10,0V17.3H425a5,5,0,0,0,0,10h9.38V37.68a5,5,0,1,0,10,0V27.3h11.39a5,5,0,0,0,0-10Z"/><path class="cls-1" d="M35.77,87.38H24.38V77a5,5,0,0,0-10,0V87.38H5a5,5,0,0,0,0,10h9.38v10.39a5,5,0,0,0,10,0V97.38H35.77a5,5,0,1,0,0-10Z"/><path class="cls-1" d="M119.77,87.77H108.38V77.38a5,5,0,0,0-10,0V87.77H89a5,5,0,0,0,0,10h9.38v10.38a5,5,0,0,0,10,0V97.77h11.39a5,5,0,0,0,0-10Z"/><path class="cls-1" d="M203.77,88.15H192.38V77.77a5,5,0,1,0-10,0V88.15H173a5,5,0,0,0,0,10h9.38v10.38a5,5,0,0,0,10,0V98.15h11.39a5,5,0,0,0,0-10Z"/><path class="cls-1" d="M287.77,88.53H276.38V78.15a5,5,0,1,0-10,0V88.53H257a5,5,0,0,0,0,10h9.38v10.38a5,5,0,0,0,10,0V98.53h11.39a5,5,0,0,0,0-10Z"/><path class="cls-2" d="M371.77,88.91H360.38V78.53a5,5,0,1,0-10,0V88.91H341a5,5,0,0,0,0,10h9.38V109.3a5,5,0,1,0,10,0V98.91h11.39a5,5,0,0,0,0-10Z"/><path class="cls-1" d="M455.77,89.3H444.38V78.91a5,5,0,1,0-10,0V89.3H425a5,5,0,0,0,0,10h9.38v10.38a5,5,0,0,0,10,0V99.3h11.39a5,5,0,0,0,0-10Z"/><path class="cls-1" d="M35.77,159.38H24.38V149a5,5,0,0,0-10,0v10.38H5a5,5,0,0,0,0,10h9.38v10.39a5,5,0,0,0,10,0V169.38H35.77a5,5,0,1,0,0-10Z"/><path class="cls-1" d="M119.77,159.77H108.38V149.38a5,5,0,0,0-10,0v10.39H89a5,5,0,0,0,0,10h9.38v10.38a5,5,0,0,0,10,0V169.77h11.39a5,5,0,1,0,0-10Z"/><path class="cls-1" d="M203.77,160.15H192.38V149.77a5,5,0,1,0-10,0v10.38H173a5,5,0,0,0,0,10h9.38v10.38a5,5,0,0,0,10,0V170.15h11.39a5,5,0,0,0,0-10Z"/><path class="cls-1" d="M287.77,160.53H276.38V150.15a5,5,0,1,0-10,0v10.38H257a5,5,0,0,0,0,10h9.38v10.38a5,5,0,0,0,10,0V170.53h11.39a5,5,0,0,0,0-10Z"/><path class="cls-1" d="M371.77,160.91H360.38V150.53a5,5,0,1,0-10,0v10.38H341a5,5,0,0,0,0,10h9.38V181.3a5,5,0,1,0,10,0V170.91h11.39a5,5,0,0,0,0-10Z"/><path class="cls-1" d="M455.77,161.3H444.38V150.91a5,5,0,1,0-10,0V161.3H425a5,5,0,0,0,0,10h9.38v10.38a5,5,0,0,0,10,0V171.3h11.39a5,5,0,0,0,0-10Z"/><path class="cls-1" d="M35.77,231.38H24.38V221a5,5,0,0,0-10,0v10.38H5a5,5,0,0,0,0,10h9.38v10.39a5,5,0,0,0,10,0V241.38H35.77a5,5,0,0,0,0-10Z"/><path class="cls-1" d="M119.77,231.77H108.38V221.38a5,5,0,0,0-10,0v10.39H89a5,5,0,1,0,0,10h9.38v10.38a5,5,0,0,0,10,0V241.77h11.39a5,5,0,1,0,0-10Z"/><path class="cls-2" d="M203.77,232.15H192.38V221.77a5,5,0,1,0-10,0v10.38H173a5,5,0,0,0,0,10h9.38v10.38a5,5,0,0,0,10,0V242.15h11.39a5,5,0,0,0,0-10Z"/><path class="cls-1" d="M287.77,232.53H276.38V222.15a5,5,0,1,0-10,0v10.38H257a5,5,0,0,0,0,10h9.38v10.38a5,5,0,0,0,10,0V242.53h11.39a5,5,0,0,0,0-10Z"/><path class="cls-1" d="M371.77,232.91H360.38V222.53a5,5,0,1,0-10,0v10.38H341a5,5,0,0,0,0,10h9.38V253.3a5,5,0,1,0,10,0V242.91h11.39a5,5,0,0,0,0-10Z"/><path class="cls-1" d="M455.77,233.3H444.38V222.91a5,5,0,1,0-10,0V233.3H425a5,5,0,0,0,0,10h9.38v10.38a5,5,0,0,0,10,0V243.3h11.39a5,5,0,0,0,0-10Z"/><path class="cls-1" d="M35.77,303.38H24.38V293a5,5,0,0,0-10,0v10.38H5a5,5,0,0,0,0,10h9.38v10.39a5,5,0,0,0,10,0V313.38H35.77a5,5,0,0,0,0-10Z"/><path class="cls-1" d="M119.77,303.77H108.38V293.38a5,5,0,0,0-10,0v10.39H89a5,5,0,0,0,0,10h9.38v10.38a5,5,0,0,0,10,0V313.77h11.39a5,5,0,0,0,0-10Z"/><path class="cls-1" d="M203.77,304.15H192.38V293.77a5,5,0,0,0-10,0v10.38H173a5,5,0,0,0,0,10h9.38v10.38a5,5,0,0,0,10,0V314.15h11.39a5,5,0,0,0,0-10Z"/><path class="cls-1" d="M287.77,304.53H276.38V294.15a5,5,0,0,0-10,0v10.38H257a5,5,0,0,0,0,10h9.38v10.38a5,5,0,0,0,10,0V314.53h11.39a5,5,0,0,0,0-10Z"/><path class="cls-1" d="M371.77,304.91H360.38V294.53a5,5,0,0,0-10,0v10.38H341a5,5,0,0,0,0,10h9.38V325.3a5,5,0,1,0,10,0V314.91h11.39a5,5,0,0,0,0-10Z"/><path class="cls-1" d="M455.77,305.3H444.38V294.91a5,5,0,1,0-10,0V305.3H425a5,5,0,0,0,0,10h9.38v10.38a5,5,0,0,0,10,0V315.3h11.39a5,5,0,0,0,0-10Z"/></g></g></svg>