<svg width="634" height="331" viewBox="0 0 634 331" fill="none" xmlns="http://www.w3.org/2000/svg">
<g clip-path="url(#clip0_6_53)">
<path d="M134.453 312.581C119.273 301.386 108.236 281.262 110.495 260.917C124.164 276.977 142.412 287.049 162.011 289.35C169.572 290.206 178.061 290.267 183.43 296.352C186.772 300.139 188.191 305.673 188.264 311.023C188.337 316.373 187.201 321.639 186.073 326.836L186.35 328.134C168.243 327.377 149.634 323.777 134.453 312.581Z" fill="#00D455"/>
<path d="M110.875 260.912C116.554 276.621 126.462 289.906 139.191 298.879C141.902 300.866 144.872 302.357 147.992 303.297C151.058 304.102 154.258 303.963 157.26 302.895C160.077 301.962 162.864 300.639 165.832 300.498C167.352 300.451 168.864 300.768 170.268 301.429C171.673 302.09 172.938 303.079 173.981 304.332C176.651 307.378 178.195 311.327 179.586 315.249C181.13 319.603 182.674 324.154 185.82 327.379C186.201 327.77 185.643 328.416 185.262 328.026C179.789 322.415 179.187 313.412 174.884 306.903C172.877 303.865 170.048 301.494 166.59 301.394C163.566 301.306 160.692 302.668 157.847 303.64C154.932 304.731 151.825 304.997 148.798 304.416C145.645 303.658 142.629 302.299 139.879 300.397C133.629 296.226 127.996 290.968 123.188 284.817C117.667 277.831 113.242 269.827 110.105 261.152C109.911 260.616 110.683 260.379 110.875 260.912H110.875Z" fill="white"/>
<path d="M134.942 296.263C133.322 298.476 131.059 299.964 128.558 300.463C126.058 300.963 123.482 300.439 121.29 298.987C120.848 298.692 121.233 297.9 121.676 298.196C123.714 299.552 126.114 300.039 128.442 299.569C130.769 299.099 132.872 297.702 134.37 295.632C134.696 295.182 135.266 295.816 134.942 296.263V296.263Z" fill="white"/>
<path d="M155.887 303.58C155.449 297.727 153.078 292.275 149.246 288.312C148.866 287.92 149.424 287.273 149.804 287.665C153.784 291.797 156.242 297.476 156.686 303.569C156.728 304.15 155.929 304.158 155.887 303.58Z" fill="white"/>
<path d="M118.671 277.452C119.456 276.744 120.073 275.826 120.466 274.782C120.86 273.737 121.018 272.598 120.927 271.467C120.878 270.887 121.677 270.879 121.725 271.455C121.821 272.705 121.645 273.963 121.212 275.119C120.78 276.274 120.103 277.292 119.243 278.083C119.167 278.166 119.067 278.212 118.962 278.214C118.857 278.215 118.756 278.171 118.678 278.091C118.603 278.007 118.56 277.893 118.559 277.774C118.557 277.654 118.598 277.538 118.671 277.452Z" fill="white"/>
<path d="M162.276 223.686C162.315 224.047 162.354 224.408 162.4 224.773C162.951 229.624 163.849 234.417 165.086 239.104C165.177 239.468 165.273 239.835 165.373 240.196C168.459 251.452 173.365 261.961 179.842 271.19C182.422 274.86 185.245 278.302 188.287 281.487C192.488 285.885 197.352 290.276 199.947 295.824C200.223 296.4 200.468 296.994 200.68 297.604L187.728 327.651C187.669 327.702 187.615 327.757 187.555 327.809L187.086 329.036C186.919 328.884 186.749 328.722 186.582 328.571C186.485 328.483 186.391 328.389 186.293 328.301C186.229 328.24 186.166 328.179 186.105 328.129C186.084 328.109 186.062 328.089 186.047 328.072C185.986 328.021 185.935 327.967 185.88 327.92C184.926 327.02 183.975 326.11 183.029 325.192C183.023 325.189 183.023 325.189 183.02 325.179C175.824 318.159 169.083 310.399 163.597 301.727C163.432 301.466 163.261 301.202 163.102 300.927C160.648 297.003 158.482 292.858 156.625 288.535C155.615 286.163 154.712 283.736 153.919 281.261C151.88 274.863 150.744 268.141 150.551 261.343C150.168 247.791 153.62 234.251 161.655 224.429C161.861 224.178 162.064 223.933 162.276 223.686Z" fill="#00D455"/>
<path d="M162.583 223.939C158.76 240.351 159.603 257.709 164.994 273.547C166.1 276.98 167.679 280.194 169.67 283.071C171.69 285.803 174.319 287.872 177.284 289.065C180.03 290.24 182.958 291.081 185.403 292.991C186.642 293.99 187.68 295.273 188.45 296.758C189.22 298.242 189.704 299.894 189.87 301.605C190.381 305.856 189.513 310.061 188.537 314.14C187.454 318.67 186.265 323.355 187.062 328.073C187.158 328.645 186.368 328.781 186.272 328.21C184.887 320 189.196 312.402 189.224 304.273C189.237 300.48 188.24 296.659 185.532 294.223C183.164 292.093 180.145 291.222 177.356 290.06C174.448 288.944 171.826 287.04 169.718 284.513C167.604 281.76 165.919 278.62 164.735 275.228C161.964 267.638 160.263 259.602 159.697 251.415C159.005 242.075 159.73 232.67 161.841 223.607C161.972 223.046 162.713 223.382 162.583 223.939Z" fill="white"/>
<path d="M162.993 268.563C160.522 269.226 157.923 268.873 155.661 267.567C153.399 266.262 151.62 264.089 150.643 261.437C150.447 260.899 151.176 260.529 151.372 261.067C152.278 263.539 153.935 265.563 156.044 266.774C158.152 267.984 160.574 268.302 162.872 267.67C163.371 267.533 163.489 268.427 162.993 268.563V268.563Z" fill="white"/>
<path d="M175.823 288.676C178.588 283.704 179.595 277.736 178.643 271.961C178.549 271.389 179.338 271.253 179.433 271.824C180.413 277.836 179.354 284.045 176.467 289.211C176.191 289.704 175.549 289.166 175.823 288.676Z" fill="white"/>
<path d="M160.008 242.458C161.012 242.427 161.992 242.114 162.863 241.548C163.733 240.982 164.465 240.181 164.994 239.215C165.264 238.719 165.906 239.258 165.638 239.75C165.049 240.814 164.239 241.698 163.279 242.326C162.319 242.953 161.238 243.305 160.129 243.351C160.025 243.365 159.92 243.334 159.836 243.264C159.751 243.193 159.693 243.089 159.674 242.973C159.659 242.854 159.685 242.734 159.748 242.637C159.81 242.541 159.904 242.476 160.009 242.458H160.008Z" fill="white"/>
<path d="M597.715 312.581C612.895 301.386 623.932 281.262 621.673 260.917C608.004 276.977 589.756 287.049 570.157 289.35C562.596 290.206 554.107 290.267 548.738 296.352C545.396 300.139 543.977 305.673 543.904 311.023C543.831 316.373 544.967 321.639 546.095 326.836L545.818 328.134C563.925 327.377 582.534 323.777 597.715 312.581Z" fill="#00D555"/>
<path d="M621.293 260.912C615.614 276.621 605.707 289.906 592.977 298.879C590.267 300.866 587.297 302.357 584.176 303.297C581.11 304.102 577.91 303.963 574.908 302.895C572.091 301.962 569.305 300.639 566.336 300.498C564.816 300.451 563.304 300.768 561.9 301.429C560.495 302.09 559.23 303.079 558.188 304.332C555.517 307.378 553.974 311.327 552.582 315.249C551.038 319.603 549.494 324.154 546.348 327.379C545.967 327.77 546.525 328.416 546.906 328.026C552.379 322.415 552.982 313.412 557.284 306.903C559.291 303.865 562.12 301.494 565.578 301.394C568.602 301.306 571.476 302.668 574.321 303.64C577.236 304.731 580.343 304.997 583.371 304.416C586.523 303.658 589.539 302.299 592.289 300.397C598.54 296.226 604.172 290.968 608.98 284.817C614.501 277.831 618.926 269.827 622.063 261.152C622.257 260.616 621.486 260.379 621.293 260.912H621.293Z" fill="white"/>
<path d="M597.226 296.263C598.846 298.476 601.109 299.964 603.609 300.463C606.11 300.963 608.686 300.439 610.878 298.987C611.32 298.692 610.935 297.9 610.492 298.196C608.454 299.552 606.054 300.039 603.726 299.569C601.398 299.099 599.296 297.702 597.798 295.632C597.472 295.182 596.902 295.816 597.226 296.263V296.263Z" fill="white"/>
<path d="M576.281 303.58C576.719 297.727 579.09 292.275 582.922 288.312C583.302 287.92 582.744 287.273 582.365 287.665C578.384 291.797 575.926 297.476 575.483 303.569C575.441 304.15 576.239 304.158 576.281 303.58Z" fill="white"/>
<path d="M613.497 277.452C612.712 276.744 612.095 275.826 611.702 274.782C611.308 273.737 611.15 272.598 611.241 271.467C611.289 270.887 610.491 270.879 610.442 271.455C610.347 272.705 610.523 273.963 610.955 275.119C611.388 276.274 612.064 277.292 612.925 278.083C613 278.166 613.101 278.212 613.206 278.214C613.311 278.215 613.412 278.171 613.489 278.091C613.565 278.007 613.608 277.893 613.609 277.774C613.61 277.654 613.57 277.538 613.497 277.452Z" fill="white"/>
<path d="M569.893 223.686C569.853 224.047 569.814 224.408 569.769 224.773C569.218 229.624 568.319 234.417 567.082 239.104C566.992 239.468 566.895 239.835 566.796 240.196C563.709 251.452 558.803 261.961 552.326 271.19C549.746 274.86 546.923 278.302 543.882 281.487C539.681 285.885 534.817 290.276 532.222 295.824C531.945 296.4 531.7 296.994 531.489 297.604L544.44 327.651C544.5 327.702 544.553 327.757 544.613 327.809L545.082 329.036C545.249 328.884 545.419 328.722 545.586 328.571C545.684 328.483 545.778 328.389 545.875 328.301C545.939 328.24 546.003 328.179 546.063 328.129C546.085 328.109 546.106 328.089 546.121 328.072C546.182 328.021 546.234 327.967 546.288 327.92C547.243 327.02 548.193 326.11 549.139 325.192C549.145 325.189 549.145 325.189 549.149 325.179C556.344 318.159 563.085 310.399 568.571 301.727C568.736 301.466 568.907 301.202 569.066 300.927C571.52 297.003 573.686 292.858 575.543 288.535C576.553 286.163 577.456 283.736 578.249 281.261C580.288 274.863 581.424 268.141 581.617 261.343C582 247.791 578.549 234.251 570.513 224.429C570.307 224.178 570.105 223.933 569.893 223.686Z" fill="#00D555"/>
<path d="M569.585 223.939C573.408 240.351 572.565 257.709 567.175 273.547C566.068 276.98 564.49 280.194 562.498 283.071C560.479 285.803 557.849 287.872 554.884 289.065C552.139 290.24 549.21 291.081 546.765 292.991C545.526 293.99 544.488 295.273 543.718 296.758C542.948 298.242 542.465 299.894 542.299 301.605C541.787 305.856 542.655 310.061 543.631 314.14C544.714 318.67 545.903 323.355 545.107 328.073C545.01 328.645 545.8 328.781 545.896 328.21C547.281 320 542.973 312.402 542.945 304.273C542.932 300.48 543.929 296.659 546.636 294.223C549.004 292.093 552.023 291.222 554.812 290.06C557.72 288.944 560.342 287.04 562.45 284.513C564.564 281.76 566.249 278.62 567.433 275.228C570.205 267.638 571.905 259.602 572.471 251.415C573.163 242.075 572.438 232.67 570.327 223.607C570.197 223.046 569.455 223.382 569.585 223.939Z" fill="white"/>
<path d="M569.175 268.563C571.646 269.226 574.245 268.873 576.507 267.567C578.769 266.262 580.548 264.089 581.525 261.437C581.721 260.899 580.992 260.529 580.796 261.067C579.89 263.539 578.233 265.563 576.124 266.774C574.016 267.984 571.594 268.302 569.296 267.67C568.797 267.533 568.679 268.427 569.175 268.563V268.563Z" fill="white"/>
<path d="M556.345 288.676C553.58 283.704 552.573 277.736 553.525 271.961C553.619 271.389 552.83 271.253 552.735 271.824C551.755 277.836 552.814 284.045 555.701 289.211C555.977 289.704 556.619 289.166 556.345 288.676Z" fill="white"/>
<path d="M572.16 242.458C571.156 242.427 570.176 242.114 569.305 241.548C568.435 240.982 567.703 240.181 567.174 239.215C566.904 238.719 566.262 239.258 566.53 239.75C567.119 240.814 567.929 241.698 568.889 242.326C569.849 242.953 570.931 243.305 572.039 243.351C572.143 243.365 572.248 243.334 572.332 243.264C572.417 243.193 572.475 243.089 572.494 242.973C572.509 242.854 572.483 242.734 572.42 242.637C572.358 242.541 572.264 242.476 572.16 242.458H572.16Z" fill="white"/>
<path d="M164.352 213.853C163.778 213.462 163.286 212.933 162.912 212.304C162.538 211.674 162.29 210.959 162.187 210.21C162.083 209.461 162.126 208.694 162.312 207.966C162.498 207.237 162.823 206.563 163.264 205.992L155.189 189.975L163.639 190.593L170.012 205.708C170.811 206.61 171.289 207.813 171.357 209.088C171.424 210.363 171.076 211.622 170.379 212.626C169.681 213.63 168.682 214.309 167.572 214.535C166.461 214.762 165.315 214.519 164.352 213.853Z" fill="#FFB6B6"/>
<path d="M102.192 323.041H107.782L110.442 298.639L102.191 298.64L102.192 323.041Z" fill="#FFB6B6"/>
<path d="M100.766 320.976L111.775 320.976H111.775C113.636 320.976 115.421 321.812 116.736 323.301C118.052 324.79 118.791 326.81 118.791 328.916V329.174L100.766 329.174L100.766 320.976Z" fill="#2F2E41"/>
<path d="M140.495 323.041H146.085L148.744 298.639L140.493 298.64L140.495 323.041Z" fill="#FFB6B6"/>
<path d="M139.068 320.976L150.078 320.976H150.078C151.939 320.976 153.723 321.812 155.039 323.301C156.355 324.79 157.094 326.81 157.094 328.916V329.174L139.069 329.174L139.068 320.976Z" fill="#2F2E41"/>
<path d="M154.869 190.664C154.869 190.664 156.407 215.444 153.379 227.924C150.35 240.404 149.809 315.877 149.809 315.877H139.658L130.86 213.143L110.577 316.239L100.908 315.487L106.211 194.001L154.869 190.664Z" fill="#2F2E41"/>
<path d="M110.406 107.13L118.166 100.721L131.169 103.925L134.689 113.39L140.754 116.794C142.749 117.913 144.473 119.563 145.78 121.603C147.086 123.642 147.935 126.011 148.254 128.504L156.919 196.22L106.211 194.001L100.072 114.253C100.008 113.419 100.092 112.58 100.32 111.785C100.547 110.989 100.913 110.253 101.397 109.621C101.88 108.988 102.471 108.472 103.133 108.102C103.796 107.732 104.518 107.517 105.255 107.468L110.406 107.13Z" fill="#3F3D56"/>
<path d="M143.963 122.083L148.646 129.228L169.045 199.638L159.483 203.97L144.172 171.161L143.963 122.083Z" fill="#3F3D56"/>
<path d="M126.986 97.3752C133.241 97.3752 138.312 91.6368 138.312 84.558C138.312 77.4793 133.241 71.7409 126.986 71.7409C120.731 71.7409 115.66 77.4793 115.66 84.558C115.66 91.6368 120.731 97.3752 126.986 97.3752Z" fill="#FFB9B9"/>
<path opacity="0.1" d="M102.296 137.291L120.778 166.382L141.437 181.627L102.296 137.291Z" fill="black"/>
<path d="M120.984 93.8239C120.196 92.0438 119.386 90.1063 119.687 88.1449C119.988 86.1835 121.977 84.4744 123.512 85.4468C124.149 82.8421 126.968 81.7021 129.342 82.0028C131.715 82.3035 133.9 83.599 136.237 84.1552C138.574 84.7114 141.412 84.2702 142.675 81.9765L139.653 81.9173L142.8 77.7864L139.152 77.4775C140.416 75.9342 140.08 73.3121 138.857 71.7277C137.634 70.1434 135.777 69.3937 133.966 68.9197C130.35 67.9764 126.602 67.8789 122.951 68.6331C121.23 68.9334 119.572 69.5865 118.058 70.5603C116.632 71.5444 115.454 72.9271 114.637 74.5753C113.755 76.4349 113.278 78.5058 113.247 80.6158C113.193 83.4421 113.767 86.2385 114.916 88.7487C116.065 91.2589 117.752 93.4026 119.823 94.9834" fill="#2F2E41"/>
<path d="M542.674 329.503H191.199C187.579 329.499 184.109 327.87 181.55 324.973C178.99 322.077 177.551 318.15 177.546 314.053V15.4499C177.551 11.3537 178.99 7.42665 181.55 4.53023C184.109 1.63381 187.579 0.00459866 191.199 0H542.674C546.293 0.00467138 549.763 1.63392 552.323 4.53034C554.882 7.42675 556.322 11.3538 556.326 15.4499V314.053C556.322 318.15 554.882 322.077 552.323 324.973C549.763 327.869 546.293 329.499 542.674 329.503Z" fill="#E4E4E4"/>
<path d="M454.214 137.102H399.958C397.277 137.102 394.706 135.897 392.81 133.751C390.914 131.606 389.849 128.695 389.849 125.661C389.849 122.627 390.914 119.717 392.81 117.571C394.706 115.425 397.277 114.22 399.958 114.22H454.214C456.896 114.22 459.467 115.425 461.363 117.571C463.259 119.717 464.324 122.627 464.324 125.661C464.324 128.695 463.259 131.606 461.363 133.751C459.467 135.897 456.896 137.102 454.214 137.102Z" fill="white"/>
<path d="M406.698 168.375H393.892C392.909 168.375 391.966 167.933 391.271 167.146C390.576 166.359 390.186 165.292 390.186 164.179C390.186 163.067 390.576 162 391.271 161.213C391.966 160.426 392.909 159.984 393.892 159.984H406.698C407.681 159.984 408.624 160.426 409.319 161.213C410.014 162 410.405 163.067 410.405 164.179C410.405 165.292 410.014 166.359 409.319 167.146C408.624 167.933 407.681 168.375 406.698 168.375Z" fill="white"/>
<path d="M459.943 168.375H447.137C446.154 168.375 445.211 167.933 444.516 167.146C443.821 166.359 443.43 165.292 443.43 164.179C443.43 163.067 443.821 162 444.516 161.213C445.211 160.426 446.154 159.984 447.137 159.984H459.943C460.926 159.984 461.869 160.426 462.564 161.213C463.259 162 463.65 163.067 463.65 164.179C463.65 165.292 463.259 166.359 462.564 167.146C461.869 167.933 460.926 168.375 459.943 168.375Z" fill="white"/>
<path d="M432.984 168.375H420.178C419.195 168.375 418.252 167.933 417.557 167.146C416.862 166.359 416.471 165.292 416.471 164.179C416.471 163.067 416.862 162 417.557 161.213C418.252 160.426 419.195 159.984 420.178 159.984H432.984C433.967 159.984 434.91 160.426 435.605 161.213C436.3 162 436.691 163.067 436.691 164.179C436.691 165.292 436.3 166.359 435.605 167.146C434.91 167.933 433.967 168.375 432.984 168.375Z" fill="white"/>
<path d="M406.698 184.392H393.892C392.909 184.392 391.966 183.95 391.271 183.163C390.576 182.377 390.186 181.31 390.186 180.197C390.186 179.084 390.576 178.017 391.271 177.231C391.966 176.444 392.909 176.002 393.892 176.002H406.698C407.681 176.002 408.624 176.444 409.319 177.231C410.014 178.017 410.405 179.084 410.405 180.197C410.405 181.31 410.014 182.377 409.319 183.163C408.624 183.95 407.681 184.392 406.698 184.392Z" fill="white"/>
<path d="M459.943 184.392H447.137C446.154 184.392 445.211 183.95 444.516 183.163C443.821 182.377 443.43 181.31 443.43 180.197C443.43 179.084 443.821 178.017 444.516 177.231C445.211 176.444 446.154 176.002 447.137 176.002H459.943C460.926 176.002 461.869 176.444 462.564 177.231C463.259 178.017 463.65 179.084 463.65 180.197C463.65 181.31 463.259 182.377 462.564 183.163C461.869 183.95 460.926 184.392 459.943 184.392Z" fill="white"/>
<path d="M432.984 184.392H420.178C419.195 184.392 418.252 183.95 417.557 183.163C416.862 182.377 416.471 181.31 416.471 180.197C416.471 179.084 416.862 178.017 417.557 177.231C418.252 176.444 419.195 176.002 420.178 176.002H432.984C433.967 176.002 434.91 176.444 435.605 177.231C436.3 178.017 436.691 179.084 436.691 180.197C436.691 181.31 436.3 182.377 435.605 183.163C434.91 183.95 433.967 184.392 432.984 184.392Z" fill="white"/>
<path d="M406.698 200.41H393.892C392.909 200.41 391.966 199.968 391.271 199.181C390.576 198.394 390.186 197.327 390.186 196.215C390.186 195.102 390.576 194.035 391.271 193.248C391.966 192.461 392.909 192.019 393.892 192.019H406.698C407.681 192.019 408.624 192.461 409.319 193.248C410.014 194.035 410.405 195.102 410.405 196.215C410.405 197.327 410.014 198.394 409.319 199.181C408.624 199.968 407.681 200.41 406.698 200.41Z" fill="white"/>
<path d="M459.943 200.41H447.137C446.154 200.41 445.211 199.968 444.516 199.181C443.821 198.394 443.43 197.327 443.43 196.215C443.43 195.102 443.821 194.035 444.516 193.248C445.211 192.461 446.154 192.019 447.137 192.019H459.943C460.926 192.019 461.869 192.461 462.564 193.248C463.259 194.035 463.65 195.102 463.65 196.215C463.65 197.327 463.259 198.394 462.564 199.181C461.869 199.968 460.926 200.41 459.943 200.41Z" fill="white"/>
<path d="M432.984 200.41H420.178C419.195 200.41 418.252 199.968 417.557 199.181C416.862 198.394 416.471 197.327 416.471 196.215C416.471 195.102 416.862 194.035 417.557 193.248C418.252 192.461 419.195 192.019 420.178 192.019H432.984C433.967 192.019 434.91 192.461 435.605 193.248C436.3 194.035 436.691 195.102 436.691 196.215C436.691 197.327 436.3 198.394 435.605 199.181C434.91 199.968 433.967 200.41 432.984 200.41Z" fill="white"/>
<path d="M406.698 216.427H393.892C392.909 216.427 391.966 215.985 391.271 215.198C390.576 214.412 390.186 213.345 390.186 212.232C390.186 211.119 390.576 210.052 391.271 209.266C391.966 208.479 392.909 208.037 393.892 208.037H406.698C407.681 208.037 408.624 208.479 409.319 209.266C410.014 210.052 410.405 211.119 410.405 212.232C410.405 213.345 410.014 214.412 409.319 215.198C408.624 215.985 407.681 216.427 406.698 216.427Z" fill="white"/>
<path d="M459.943 216.427H447.137C446.154 216.427 445.211 215.985 444.516 215.198C443.821 214.412 443.43 213.345 443.43 212.232C443.43 211.119 443.821 210.052 444.516 209.266C445.211 208.479 446.154 208.037 447.137 208.037H459.943C460.926 208.037 461.869 208.479 462.564 209.266C463.259 210.052 463.65 211.119 463.65 212.232C463.65 213.345 463.259 214.412 462.564 215.198C461.869 215.985 460.926 216.427 459.943 216.427Z" fill="white"/>
<path d="M432.984 216.427H420.178C419.195 216.427 418.252 215.985 417.557 215.198C416.862 214.412 416.471 213.345 416.471 212.232C416.471 211.119 416.862 210.052 417.557 209.266C418.252 208.479 419.195 208.037 420.178 208.037H432.984C433.967 208.037 434.91 208.479 435.605 209.266C436.3 210.052 436.691 211.119 436.691 212.232C436.691 213.345 436.3 214.412 435.605 215.198C434.91 215.985 433.967 216.427 432.984 216.427Z" fill="white"/>
<path d="M320.091 199.647C339.075 199.647 354.465 182.231 354.465 160.747C354.465 139.263 339.075 121.847 320.091 121.847C301.108 121.847 285.718 139.263 285.718 160.747C285.718 182.231 301.108 199.647 320.091 199.647Z" fill="#CACACA"/>
<path d="M320.091 208.418C317.411 208.415 314.841 207.208 312.946 205.064C311.051 202.919 309.984 200.011 309.981 196.977V124.517C309.98 123.014 310.241 121.525 310.749 120.136C311.256 118.747 312.001 117.484 312.94 116.421C313.878 115.358 314.993 114.514 316.22 113.938C317.448 113.363 318.763 113.067 320.091 113.067C321.419 113.067 322.735 113.363 323.962 113.938C325.189 114.514 326.304 115.358 327.243 116.421C328.182 117.484 328.926 118.747 329.434 120.136C329.941 121.525 330.202 123.014 330.201 124.517V196.977C330.198 200.011 329.132 202.919 327.236 205.064C325.341 207.208 322.772 208.415 320.091 208.418Z" fill="white"/>
<path d="M409.89 132.189H400.454C400.097 132.189 399.754 132.029 399.501 131.743C399.248 131.457 399.106 131.069 399.106 130.664C399.106 130.259 399.248 129.871 399.501 129.585C399.754 129.299 400.097 129.139 400.454 129.139H409.89C410.248 129.139 410.591 129.299 410.843 129.585C411.096 129.871 411.238 130.259 411.238 130.664C411.238 131.069 411.096 131.457 410.843 131.743C410.591 132.029 410.248 132.189 409.89 132.189Z" fill="#E4E4E4"/>
<path d="M424.718 132.571H415.282C414.925 132.571 414.582 132.41 414.329 132.124C414.076 131.838 413.934 131.45 413.934 131.045C413.934 130.641 414.076 130.253 414.329 129.967C414.582 129.681 414.925 129.52 415.282 129.52H424.718C425.075 129.52 425.418 129.681 425.671 129.967C425.924 130.253 426.066 130.641 426.066 131.045C426.066 131.45 425.924 131.838 425.671 132.124C425.418 132.41 425.075 132.571 424.718 132.571Z" fill="#E4E4E4"/>
<path d="M439.545 132.952H430.11C429.752 132.952 429.409 132.792 429.157 132.505C428.904 132.219 428.762 131.831 428.762 131.427C428.762 131.022 428.904 130.634 429.157 130.348C429.409 130.062 429.752 129.901 430.11 129.901H439.545C439.903 129.901 440.246 130.062 440.499 130.348C440.751 130.634 440.893 131.022 440.893 131.427C440.893 131.831 440.751 132.219 440.499 132.505C440.246 132.792 439.903 132.952 439.545 132.952Z" fill="#E4E4E4"/>
<path d="M454.373 133.334H444.937C444.58 133.334 444.237 133.173 443.984 132.887C443.731 132.601 443.589 132.213 443.589 131.808C443.589 131.404 443.731 131.016 443.984 130.729C444.237 130.443 444.58 130.283 444.937 130.283H454.373C454.731 130.283 455.073 130.443 455.326 130.729C455.579 131.016 455.721 131.404 455.721 131.808C455.721 132.213 455.579 132.601 455.326 132.887C455.073 133.173 454.731 133.334 454.373 133.334Z" fill="#E4E4E4"/>
<path d="M222.363 282.403C222.363 284.292 222.694 286.162 223.337 287.905C223.98 289.648 224.923 291.229 226.111 292.555H220.543C218.901 292.555 217.274 292.189 215.756 291.478C214.239 290.767 212.86 289.724 211.698 288.409C210.537 287.095 209.615 285.534 208.987 283.817C208.358 282.099 208.035 280.259 208.035 278.4V48.9053C208.035 47.0463 208.358 45.2056 208.987 43.4881C209.615 41.7707 210.537 40.2101 211.698 38.8957C212.86 37.5812 214.239 36.5385 215.756 35.8271C217.274 35.1157 218.901 34.7495 220.543 34.7495H228.645C226.734 36.0072 225.149 37.8102 224.046 39.9785C222.944 42.1468 222.364 44.6044 222.363 47.1059L222.363 282.403Z" fill="#CACACA"/>
<path d="M633.198 331H0.802622C0.590188 330.999 0.38667 330.903 0.236674 330.733C0.0866775 330.563 0.00244141 330.332 0.00244141 330.092C0.00244141 329.851 0.0866775 329.621 0.236674 329.451C0.38667 329.28 0.590188 329.184 0.802622 329.184H633.198C633.41 329.184 633.615 329.279 633.765 329.45C633.916 329.62 634 329.851 634 330.092C634 330.333 633.916 330.564 633.765 330.734C633.615 330.904 633.41 331 633.198 331Z" fill="#CACACA"/>
<path d="M221.015 101.81C216.756 100.46 212.481 99.2087 208.19 98.0569C193.516 94.0929 178.64 91.1584 163.646 89.2701C161.105 88.5127 158.402 88.9222 156.126 90.4093C153.85 91.8964 152.185 94.3408 151.494 97.2103L144.006 128.483C143.319 131.365 143.67 134.439 144.983 137.028C146.296 139.618 148.463 141.513 151.009 142.296L151.11 142.319C161.018 143.592 171.02 145.362 180.967 147.62C181.857 147.818 182.74 148.024 183.63 148.238C186.818 148.985 189.997 149.783 193.167 150.633C194.555 150.999 195.937 151.38 197.325 151.769C201.059 152.822 204.795 153.943 208.534 155.133C212.692 156.46 216.853 157.876 221.015 159.381C221.467 159.534 221.919 159.694 222.363 159.862V102.244C221.919 102.092 221.467 101.947 221.015 101.81Z" fill="white"/>
<path d="M221.015 101.81C216.756 100.46 212.481 99.2087 208.19 98.0569C193.516 94.0929 178.64 91.1584 163.646 89.2701C161.105 88.5127 158.402 88.9222 156.126 90.4093C153.85 91.8964 152.185 94.3408 151.494 97.2103L144.006 128.483C143.319 131.365 143.67 134.439 144.983 137.028C146.296 139.618 148.463 141.513 151.009 142.296L151.11 142.319C161.018 143.592 171.02 145.362 180.967 147.62C181.857 147.818 182.74 148.024 183.63 148.238C186.818 148.985 189.997 149.783 193.167 150.633C194.555 150.999 195.937 151.38 197.325 151.769C201.059 152.822 204.795 153.943 208.534 155.133C212.692 156.46 216.853 157.876 221.015 159.381C221.467 159.534 221.919 159.694 222.363 159.862V158.252C221.912 158.092 221.46 157.932 221.015 157.772C217.187 156.391 213.364 155.092 209.545 153.874C208.116 153.409 206.687 152.959 205.258 152.524C202.683 151.738 200.115 150.986 197.554 150.266C196.193 149.877 194.834 149.504 193.477 149.145C193.376 149.115 193.268 149.092 193.167 149.061C190.855 148.443 188.538 147.854 186.218 147.292C185.328 147.078 184.439 146.865 183.549 146.659C172.819 144.142 162.008 142.181 151.312 140.808C149.124 140.119 147.266 138.479 146.141 136.246C145.016 134.014 144.717 131.368 145.307 128.887L152.795 97.6069C153.394 95.118 154.841 92.9998 156.818 91.7171C158.796 90.4344 161.142 90.092 163.343 90.7651L163.444 90.7803C178.247 92.6405 192.936 95.524 207.428 99.4145C207.576 99.4603 207.725 99.4984 207.873 99.5366C212.267 100.726 216.648 102.013 221.015 103.396C221.46 103.533 221.912 103.678 222.363 103.831V102.244C221.919 102.092 221.467 101.947 221.015 101.81Z" fill="#F44336"/>
<path d="M222.364 103.038V159.053C221.912 158.885 221.468 158.725 221.016 158.565C217.033 157.123 213.036 155.766 209.026 154.492C205.177 153.256 201.315 152.094 197.44 151.006C196.065 150.625 194.697 150.251 193.322 149.885C193.268 149.61 193.214 149.336 193.167 149.061C192.917 147.749 192.722 146.422 192.574 145.087C192.506 144.576 192.459 144.065 192.412 143.547C191.703 135.375 192.691 127.129 195.298 119.467C197.906 111.804 202.06 104.937 207.428 99.4146C207.624 99.201 207.826 98.9951 208.028 98.7967C212.382 99.9714 216.711 101.243 221.016 102.61C221.468 102.74 221.919 102.885 222.364 103.038Z" fill="#F44336"/>
<path d="M177.605 125.973L158.861 123.471C158.202 123.383 157.533 123.443 156.894 123.647C156.255 123.851 155.658 124.196 155.137 124.661C154.615 125.126 154.18 125.703 153.856 126.359C153.532 127.015 153.325 127.736 153.247 128.483C153.169 129.229 153.222 129.985 153.402 130.708C153.582 131.431 153.887 132.107 154.298 132.697C154.709 133.287 155.219 133.78 155.799 134.147C156.378 134.514 157.016 134.748 157.675 134.836L176.418 137.338C177.748 137.512 179.085 137.082 180.135 136.142C181.185 135.203 181.863 133.83 182.02 132.325C182.177 130.821 181.801 129.307 180.973 128.116C180.145 126.925 178.934 126.155 177.605 125.973ZM180.691 132.151C180.574 133.255 180.075 134.261 179.303 134.949C178.53 135.637 177.549 135.95 176.573 135.82L157.83 133.318C156.856 133.184 155.97 132.619 155.364 131.747C154.758 130.874 154.482 129.765 154.597 128.664C154.712 127.562 155.209 126.556 155.978 125.867C156.746 125.179 157.725 124.863 158.699 124.989L177.443 127.491C178.418 127.625 179.308 128.19 179.916 129.063C180.525 129.936 180.804 131.046 180.691 132.151L180.691 132.151Z" fill="#F44336"/>
<path d="M222.363 116.157V142.723C221.93 143.017 221.48 143.277 221.016 143.501C218.596 144.723 215.914 145.119 213.299 144.639C210.684 144.159 208.25 142.825 206.296 140.801C206.107 140.61 205.918 140.404 205.736 140.191C205.554 139.985 205.379 139.763 205.211 139.542C203.176 136.898 202 133.546 201.877 130.042C201.755 126.539 202.692 123.092 204.535 120.273C206.378 117.455 209.017 115.432 212.013 114.541C215.01 113.649 218.186 113.942 221.016 115.371C221.477 115.605 221.927 115.868 222.363 116.157Z" fill="white"/>
<path d="M221.015 135.385C215.711 136.636 210.443 138.022 205.211 139.542C203.256 140.107 201.308 140.691 199.367 141.297C197.049 142.021 194.73 142.771 192.412 143.547C189.453 144.538 186.499 145.576 183.549 146.659C182.693 146.979 181.83 147.299 180.967 147.62C172.765 150.716 164.617 154.149 156.603 157.894C154.053 158.615 151.858 160.447 150.496 162.992C149.133 165.536 148.715 168.586 149.331 171.478L156.091 202.964C156.716 205.864 158.333 208.365 160.586 209.918C162.839 211.471 165.544 211.949 168.108 211.247L168.202 211.209C181.381 205.092 194.868 199.866 208.594 195.558C212.692 194.269 216.832 193.054 221.015 191.912C221.467 191.79 221.912 191.668 222.363 191.554V135.073C221.912 135.164 221.467 135.271 221.015 135.385Z" fill="white"/>
<path d="M221.015 135.385C215.711 136.636 210.443 138.022 205.211 139.542C203.256 140.107 201.308 140.691 199.367 141.297C197.049 142.021 194.73 142.771 192.412 143.547C189.453 144.538 186.499 145.576 183.549 146.659C182.693 146.979 181.83 147.299 180.967 147.62C172.765 150.716 164.617 154.149 156.603 157.894C154.053 158.615 151.858 160.447 150.496 162.992C149.133 165.536 148.715 168.586 149.331 171.478L156.091 202.964C156.716 205.864 158.333 208.365 160.586 209.918C162.839 211.471 165.544 211.949 168.108 211.247L168.202 211.209C181.381 205.092 194.868 199.866 208.594 195.558C212.692 194.269 216.832 193.054 221.015 191.912C221.467 191.79 221.912 191.668 222.363 191.554V189.982C221.912 190.104 221.467 190.226 221.015 190.348C220.678 190.44 220.335 190.531 219.998 190.623C216.035 191.714 212.115 192.868 208.237 194.086C208.136 194.116 208.028 194.154 207.927 194.185C194.27 198.483 180.85 203.692 167.737 209.783C165.526 210.37 163.199 209.945 161.263 208.601C159.327 207.257 157.938 205.102 157.398 202.606L150.645 171.12C150.109 168.613 150.474 165.967 151.659 163.764C152.844 161.56 154.753 159.979 156.967 159.366L157.068 159.328C165.796 155.239 174.679 151.533 183.63 148.238C184.492 147.917 185.355 147.604 186.218 147.292C188.334 146.537 190.453 145.802 192.574 145.087C194.811 144.332 197.046 143.605 199.279 142.906C199.428 142.86 199.576 142.814 199.724 142.769C201.908 142.09 204.099 141.434 206.296 140.801C211.169 139.397 216.075 138.108 221.015 136.934C221.46 136.827 221.912 136.72 222.363 136.621V135.073C221.912 135.164 221.467 135.271 221.015 135.385Z" fill="#F44336"/>
<path d="M222.364 135.843V190.768C221.919 190.882 221.468 190.997 221.016 191.119C216.797 192.278 212.596 193.514 208.413 194.826C208.244 194.612 208.082 194.399 207.927 194.185C203.56 188.399 200.351 181.613 198.521 174.291C196.691 166.969 196.283 159.286 197.325 151.769C197.359 151.517 197.4 151.258 197.44 151.006C197.474 150.762 197.514 150.51 197.555 150.266C197.971 147.769 198.547 145.309 199.28 142.906C199.368 142.616 199.455 142.326 199.55 142.036C201.605 141.396 203.667 140.781 205.737 140.191C210.798 138.711 215.891 137.366 221.016 136.156C221.461 136.041 221.912 135.942 222.364 135.843Z" fill="#F44336"/>
<path d="M191.044 185.597C190.539 184.192 189.561 183.071 188.327 182.481C187.093 181.89 185.701 181.878 184.459 182.446L166.969 190.47C165.729 191.042 164.74 192.148 164.219 193.545C163.699 194.941 163.689 196.515 164.193 197.919C164.696 199.324 165.672 200.445 166.905 201.036C168.138 201.627 169.529 201.64 170.77 201.072L188.26 193.048C189.501 192.475 190.49 191.369 191.011 189.973C191.533 188.576 191.545 187.003 191.044 185.597ZM187.755 191.63L170.265 199.661C169.354 200.078 168.333 200.069 167.428 199.635C166.523 199.202 165.807 198.379 165.437 197.348C165.067 196.317 165.074 195.163 165.456 194.138C165.838 193.113 166.564 192.301 167.474 191.881L184.965 183.857C185.875 183.439 186.896 183.447 187.801 183.879C188.707 184.312 189.424 185.134 189.794 186.165C190.164 187.195 190.157 188.35 189.774 189.375C189.392 190.4 188.666 191.211 187.755 191.63Z" fill="#F44336"/>
<path d="M222.364 149.87V179.777C221.919 179.905 221.469 180.007 221.016 180.082C218.31 180.511 215.552 180.009 213.102 178.641C210.651 177.274 208.621 175.103 207.275 172.413C205.929 169.722 205.329 166.635 205.553 163.553C205.778 160.472 206.816 157.538 208.534 155.133C208.689 154.911 208.85 154.698 209.026 154.492C209.187 154.278 209.363 154.072 209.545 153.874C211.035 152.206 212.846 150.95 214.835 150.204C216.825 149.458 218.94 149.241 221.016 149.572C221.47 149.641 221.92 149.741 222.364 149.87Z" fill="white"/>
<path d="M221.016 97.8357V173.965C221.467 173.797 221.919 173.637 222.364 173.484V98.5298C221.912 98.2934 221.468 98.0645 221.016 97.8357ZM221.016 97.8357V173.965C221.467 173.797 221.919 173.637 222.364 173.484V98.5298C221.912 98.2934 221.468 98.0645 221.016 97.8357ZM221.016 97.8357V173.965C221.467 173.797 221.919 173.637 222.364 173.484V98.5298C221.912 98.2934 221.468 98.0645 221.016 97.8357ZM221.016 103.396V191.119C221.467 190.997 221.919 190.882 222.364 190.768V103.831C221.912 103.678 221.461 103.533 221.016 103.396V103.396ZM221.016 103.396V191.119C221.467 190.997 221.919 190.882 222.364 190.768V103.831C221.912 103.678 221.461 103.533 221.016 103.396V103.396ZM221.016 103.396V191.119C221.467 190.997 221.919 190.882 222.364 190.768V103.831C221.912 103.678 221.461 103.533 221.016 103.396V103.396ZM221.016 103.396V191.119C221.467 190.997 221.919 190.882 222.364 190.768V103.831C221.912 103.678 221.461 103.533 221.016 103.396V103.396ZM221.016 103.396V191.912C221.467 191.79 221.912 191.668 222.364 191.554V103.831C221.912 103.678 221.461 103.533 221.016 103.396V103.396ZM515.041 31.2715H235.008C231.299 31.2784 227.743 32.9489 225.121 35.917C222.498 38.885 221.022 42.9085 221.016 47.1059V282.403C221.022 286.6 222.498 290.623 225.121 293.59C227.744 296.556 231.299 298.225 235.008 298.23H515.041C518.749 298.225 522.303 296.556 524.925 293.589C527.547 290.622 529.022 286.599 529.026 282.403V47.1059C529.023 42.9088 527.549 38.8844 524.927 35.9158C522.305 32.9473 518.75 31.277 515.041 31.2715V31.2715ZM527.678 282.403C527.675 286.195 526.342 289.83 523.973 292.512C521.604 295.193 518.392 296.701 515.041 296.705H235.008C231.656 296.701 228.443 295.194 226.073 292.513C223.703 289.832 222.369 286.196 222.364 282.403V47.1059C222.369 43.3127 223.702 39.6764 226.073 36.9942C228.443 34.312 231.656 32.8026 235.008 32.797H515.041C518.393 32.8013 521.606 34.3105 523.975 36.9932C526.344 39.676 527.676 43.313 527.678 47.1059V282.403ZM221.016 103.396V190.348C221.467 190.226 221.912 190.104 222.364 189.982V103.831C221.912 103.678 221.461 103.533 221.016 103.396V103.396ZM221.016 103.396V191.119C221.467 190.997 221.919 190.882 222.364 190.768V103.831C221.912 103.678 221.461 103.533 221.016 103.396V103.396ZM221.016 103.396V191.119C221.467 190.997 221.919 190.882 222.364 190.768V103.831C221.912 103.678 221.461 103.533 221.016 103.396V103.396ZM221.016 103.396V191.119C221.467 190.997 221.919 190.882 222.364 190.768V103.831C221.912 103.678 221.461 103.533 221.016 103.396V103.396ZM221.016 97.8357V173.965C221.467 173.797 221.919 173.637 222.364 173.484V98.5298C221.912 98.2934 221.468 98.0645 221.016 97.8357ZM221.016 97.8357V173.965C221.467 173.797 221.919 173.637 222.364 173.484V98.5298C221.912 98.2934 221.468 98.0645 221.016 97.8357Z" fill="#2F2E41"/>
<path d="M160.981 178.385C160.717 177.688 160.321 177.064 159.821 176.559C159.321 176.054 158.729 175.679 158.087 175.461C157.445 175.242 156.769 175.186 156.106 175.295C155.442 175.405 154.808 175.677 154.248 176.094L141.327 164.859L140.717 174.416L153.08 183.62C153.761 184.639 154.749 185.339 155.856 185.589C156.962 185.838 158.112 185.62 159.086 184.974C160.06 184.329 160.791 183.302 161.14 182.087C161.489 180.873 161.433 179.555 160.981 178.385V178.385Z" fill="#FFB6B6"/>
<path d="M108.915 110.579L104.664 108.305C104.664 108.305 97.8143 110.486 101.142 120.736L121.28 163.192L145.866 179.483L153.531 171.796L128.927 149.765L108.915 110.579Z" fill="#3F3D56"/>
</g>
<defs>
<clipPath id="clip0_6_53">
<rect width="634" height="331" fill="white"/>
</clipPath>
</defs>
</svg>
